<svg width="173" height="159" xmlns="http://www.w3.org/2000/svg" xmlns:xlink="http://www.w3.org/1999/xlink"><defs><path id="a" d="M0 17.86V0h16.623v17.86z"/><path id="c" d="M0 17.86V0h16.619v17.86z"/><path id="e" d="M0 17.237V0h16.623v17.237z"/><path id="g" d="M0 17.865V0h16.623v17.865z"/><path id="i" d="M0 17.865V0h16.619v17.865z"/></defs><g fill="none" fill-rule="evenodd"><path d="M3.011 34.906c-1.916-4.142-.395-7.09 4.29-7.09 2.938 0 6.582 1.16 10.129 3.05.4-1.077 1.53-1.723 3.346-1.723 3.195 0 7.6 1.995 11.057 4.809.836-.627 2.046-1.012 3.601-1.073 3.058-.128 6.763 1.019 9.984 2.883.279-.312.757-.508 1.417-.537 1.763-.073 4.149 1.084 5.334 2.582.074.094.14.185.205.276H.63c-1.634-1.469.172-3.103 2.38-3.177M114.873 84.522c.128-.014.258-.02.39-.02-.121-1.354.58-2.219 2.079-2.219 1.08 0 2.407.452 3.76 1.215-.387-2.627.851-4.335 3.656-4.335 2.264 0 5.128 1.11 7.958 2.923.248-1.031 1.081-1.649 2.482-1.649 2.461 0 5.958 1.909 8.762 4.602h.003c.606-.6 1.517-.971 2.713-1.03 2.343-.122 5.253.975 7.832 2.762.196-.302.554-.489 1.065-.513 1.282-.066 3.048.92 4.073 2.238H112.81c-1.1-1.999-.223-3.748 2.063-3.974" fill="#E8E8E8"/><g opacity=".681"><path d="M112.767 60.605H65.233V7.628l47.534 4z" fill="#F5F5F5" fill-rule="nonzero"/><path fill="#909090" fill-rule="nonzero" d="M118.86 15.302 60.581 7.07 60.441 0l58.28 7.953z"/><path d="m41.372 56.14 75.954-6.884V140H41.372z" fill="#F5F5F5" fill-rule="nonzero"/><path fill="#909090" fill-rule="nonzero" d="M87.28 89.86V69.163h19.534V89.86z"/><path d="M88.767 88.465v-17.86h16.605v17.86z" fill="#D4F0F5" fill-rule="nonzero"/><g transform="translate(88.749 70.595)"><mask id="b" fill="#fff"><use xlink:href="#a"/></mask><g fill="#FFF" fill-rule="nonzero" opacity=".4" mask="url(#b)"><path d="m-4.167-8.037 31.86 18.93-5.07 7.256-31.86-18.93zM-13.237.288 18.67 19.265l-3.163 4.512L-16.353 4.8z"/></g></g><path fill="#909090" fill-rule="nonzero" d="M97.698 88.558h-1.256V70.512h1.256zM52.628 89.86V69.163h19.535V89.86z"/><path d="M54.116 88.465v-17.86h16.605v17.86z" fill="#D4F0F5" fill-rule="nonzero"/><g transform="translate(54.102 70.595)"><mask id="d" fill="#fff"><use xlink:href="#c"/></mask><g fill="#FFF" fill-rule="nonzero" opacity=".4" mask="url(#d)"><path d="m-4.172-8.037 31.86 18.93-5.07 7.256-31.86-18.93zM-13.242.288l31.907 18.977-3.163 4.512L-16.358 4.8z"/></g></g><path fill="#909090" fill-rule="nonzero" d="M63.047 88.558H61.79V70.512h1.256zM78.86 39.581V19.628h19.535V39.58z"/><path d="M80.302 38.233v-17.21h16.605v17.21z" fill="#D4F0F5" fill-rule="nonzero"/><g transform="translate(80.302 21.005)"><mask id="f" fill="#fff"><use xlink:href="#e"/></mask><g fill="#FFF" fill-rule="nonzero" opacity=".4" mask="url(#f)"><path d="m-4.186-7.749 31.86 18.28-5.023 6.976L-9.256-.773zM-13.21.298l31.861 18.279-3.163 4.372-31.86-18.28z"/></g></g><path fill="#909090" fill-rule="nonzero" d="M89.28 38.326h-1.303V20.93h1.302z"/><g><path fill="#909090" fill-rule="nonzero" d="M87.28 121.116v-20.65h19.534v20.65z"/><path d="M88.767 119.72v-17.86h16.605v17.86z" fill="#D4F0F5" fill-rule="nonzero"/><path fill="#909090" fill-rule="nonzero" d="M108.628 121.116v2.372H85.512v-2.372z"/><g transform="translate(88.749 101.86)"><mask id="h" fill="#fff"><use xlink:href="#g"/></mask><g fill="#FFF" fill-rule="nonzero" opacity=".4" mask="url(#h)"><path d="m-4.167-8.047 31.86 18.93-5.07 7.257L-9.237-.79zM-13.237.28 18.67 19.255l-3.163 4.511-31.86-18.93z"/></g></g><path fill="#909090" fill-rule="nonzero" d="M97.698 119.814h-1.256v-18.047h1.256z"/></g><g><path fill="#909090" fill-rule="nonzero" d="M52.628 121.116v-20.65h19.535v20.65z"/><path d="M54.116 119.72v-17.86h16.605v17.86z" fill="#D4F0F5" fill-rule="nonzero"/><path fill="#909090" fill-rule="nonzero" d="M73.977 121.116v2.372H50.86v-2.372z"/><g transform="translate(54.102 101.86)"><mask id="j" fill="#fff"><use xlink:href="#i"/></mask><g fill="#FFF" fill-rule="nonzero" opacity=".4" mask="url(#j)"><path d="m-4.172-8.047 31.86 18.93-5.07 7.257L-9.241-.79zM-13.242.28l31.907 18.976-3.163 4.511-31.86-18.93z"/></g></g><path fill="#909090" fill-rule="nonzero" d="M63.047 119.814H61.79v-18.047h1.256z"/></g><path fill="#909090" fill-rule="nonzero" opacity=".3" d="M41.372 64.605v-7.07l75.954-9.302v6.232z"/><path fill="#909090" fill-rule="nonzero" d="m37.186 54.651 85.256-11.86-.14 7.07-85.255 12.092z"/><g opacity=".4" fill="#2EA8BC" fill-rule="nonzero"><path d="M62.953 140c-.232-1.256.14-2.605 1.024-3.488.883-.884 2.186-1.256 3.349-.884.232.046.465.14.697.093.419-.047.698-.512.93-.93.977-1.675 2.559-3.07 4.42-3.35 1.86-.232 3.906.885 4.418 2.792 1.72-1.163 4.325-.233 5.07 1.767 2.372-.512 4.976 1.442 5.395 4"/></g><g fill="#E8E8E8" fill-rule="nonzero"><path d="M37 140c.558-3.628 4.372-6.372 7.907-5.628 1.023-2.884 4.884-4.186 7.349-2.512.79-2.697 3.767-4.279 6.465-3.953 2.698.372 5.023 2.326 6.465 4.744.372.558.744 1.256 1.395 1.349.326.047.698-.093 1.024-.186 1.72-.512 3.628 0 4.883 1.256 1.303 1.21 1.86 3.163 1.489 4.93"/></g></g><g transform="translate(60 119)"><circle stroke="#FBFBFB" fill="#FFF" cx="20" cy="20" r="20"/><g fill-rule="nonzero"><path d="M20.525 9.75c1.28.081 2.2.7 2.722 1.661l7.648 13.998a3.403 3.403 0 0 1-.004 3.234c-.584 1.004-1.602 1.607-2.718 1.607H12.9a3.083 3.083 0 0 1-2.72-1.61 3.336 3.336 0 0 1-.025-3.231l7.646-13.995c.278-.525.67-.939 1.134-1.222a3.03 3.03 0 0 1 1.59-.442z" stroke="#303030" stroke-width=".5"/><path d="M29.324 27.607c-.334.577-.911.923-1.556.923H13.282c-.645 0-1.222-.346-1.556-.923a1.874 1.874 0 0 1 0-1.87l7.244-13.298c.333-.6.91-.946 1.555-.946a1.74 1.74 0 0 1 1.555.946l7.244 13.298c.333.577.333 1.27 0 1.87z" fill="#D8232A"/><path d="M20.214 22.505c.067.161.178.23.333.23.134 0 .222-.092.311-.253.111-.254.267-1.016.445-2.263.177-1.27.266-2.239.266-2.932 0-1.292-.333-1.916-1.022-1.916-.71 0-1.044.647-1.044 1.916 0 .855.111 1.893.289 3.117.178 1.2.31 1.916.422 2.1zM20.525 23.705c-.289 0-.533.116-.755.347-.223.23-.334.484-.334.808 0 .3.111.577.311.785.223.23.467.346.778.346.289 0 .555-.116.778-.346.222-.231.333-.485.333-.785 0-.3-.111-.554-.333-.785-.245-.254-.49-.37-.778-.37z" fill="#FFFAFB"/></g></g></g></svg>