<svg width="80" height="1674" xmlns="http://www.w3.org/2000/svg" xmlns:xlink="http://www.w3.org/1999/xlink"><defs><path d="M10.777.264a1.924 1.924 0 0 1 1.944 0l.047.03 10.78 7.319-.13.65c-.197.987-1.021 1.72-2.004 1.72h-.309L11.721 3.57l-9.433 6.448-.369-.041C.973 9.87.173 9.133.067 8.177L0 7.58 10.777.264zm1.43.857a.925.925 0 0 0-.916 0L1.061 8.067c.053.485.484.862.969.916l9.692-6.623 9.692 6.623c.485 0 .916-.377 1.023-.916l-10.23-6.946z" id="bc"/><path id="a" d="M80 0v1620H0V0z"/><path d="M5.88.455a1.613 1.613 0 0 1 2.245 0c.618.586 1.854 1.09 2.719 1.09.865 0 1.586.708 1.586 1.557 0 .868.494 2.06 1.112 2.667.597.586.597 1.596 0 2.202-.598.606-1.112 1.819-1.112 2.667 0 .849-.721 1.556-1.586 1.556-.886 0-2.101.485-2.719 1.091a1.613 1.613 0 0 1-2.245 0c-.618-.586-1.854-1.091-2.719-1.091-.865 0-1.585-.707-1.585-1.556 0-.869-.495-2.06-1.113-2.667a1.54 1.54 0 0 1 0-2.202c.598-.607 1.113-1.819 1.113-2.667 0-.85.72-1.556 1.585-1.556.886 0 2.101-.485 2.72-1.091z" id="e"/><path d="M2.918 0c1.611 0 2.918 3.093 2.918 6.91 0 3.815-1.307 6.908-2.918 6.908C1.306 13.818 0 10.725 0 6.91S1.306 0 2.918 0z" id="g"/><path id="dk" d="M80 0v1620H0V0z"/><path d="M2.903 0c1.604 0 2.904 3.109 2.904 6.944s-1.3 6.944-2.904 6.944C1.3 13.888 0 10.78 0 6.944S1.3 0 2.903 0z" id="j"/><path d="M2.299 0c1.267 0 2.299.626 2.299 1.407 0 .782-1.032 1.408-2.3 1.408C1.033 2.815 0 2.189 0 1.407 0 .626 1.032 0 2.299 0z" id="di"/><path d="M2.888 0c1.594 0 2.887 3.126 2.887 6.982 0 3.855-1.293 6.981-2.887 6.981C1.293 13.963 0 10.837 0 6.982 0 3.126 1.293 0 2.888 0z" id="m"/><path d="m12.23 0 .719.016c0 .078-.063 2.048-1.705 4.034C9.743 5.864 6.584 8.007 0 8.007v-.704c4.989 0 8.695-1.282 10.697-3.706C12.198 1.814 12.229.016 12.229 0z" id="dg"/><path d="M2.903 0c1.603 0 2.903 3.11 2.903 6.945 0 3.836-1.3 6.946-2.903 6.946S0 10.78 0 6.945C0 3.11 1.3 0 2.903 0z" id="p"/><path d="M12.185 0c4.958 0 8.836 1.251 11.542 3.69.64.595.688 1.596.11 2.237a1.588 1.588 0 0 1-2.253.11c-2.095-1.893-5.254-2.862-9.399-2.862-4.222 0-7.412 1-9.508 2.971a1.576 1.576 0 0 1-1.095.438 1.6 1.6 0 0 1-1.157-.5 1.582 1.582 0 0 1 .078-2.237C3.193 1.298 7.134 0 12.185 0z" id="de"/><path d="M6.936.205a.756.756 0 0 1 .04 1.084L3.164 5.302a.796.796 0 0 1-1.124.024L.233 3.579a.756.756 0 0 1-.007-1.085.796.796 0 0 1 1.108-.007L2.567 3.68 5.828.245a.796.796 0 0 1 1.108-.04z" id="s"/><path d="M8.333 0C9.253 0 10 .746 10 1.667v6.666C10 9.253 9.254 10 8.333 10H1.667C.747 10 0 9.254 0 8.333V1.667C0 .747.746 0 1.667 0h6.666zM3.377 4.403 1 6.675v1.658c0 .332.242.607.559.658L1.667 9l6.532-.001-3.595-4.513-.05-.057a.833.833 0 0 0-1.177-.026zM8.333 1H1.667a.667.667 0 0 0-.658.559L1 1.667V5.52l1.8-1.72a1.667 1.667 0 0 1 2.224-.072l.133.124.064.07 3.725 4.674a.662.662 0 0 0 .045-.156L9 8.333V1.667a.667.667 0 0 0-.559-.658L8.333 1z" id="u"/><path d="M7.5 0a7.5 7.5 0 1 1 0 15 7.5 7.5 0 0 1 0-15z" id="w"/><path d="M5.595 0c3.09 0 5.595 2.543 5.595 5.68 0 1.989-1.687 4.688-5.06 8.098a.755.755 0 0 1-1.071 0C1.686 10.368 0 7.67 0 5.68 0 2.543 2.505 0 5.595 0zm0 2.65A2.98 2.98 0 0 0 2.61 5.627 2.98 2.98 0 0 0 5.595 8.6a2.98 2.98 0 0 0 2.983-2.974A2.98 2.98 0 0 0 5.595 2.65z" id="y"/><path d="m7.005 0 7.705 7.705a.99.99 0 0 1 0 1.401L9.106 14.71a.99.99 0 0 1-1.4 0L0 7.005l.432-5.66a.99.99 0 0 1 .913-.913L7.005 0zM2.802 2.802a.99.99 0 1 0 1.4 1.4.99.99 0 0 0-1.4-1.4z" id="A"/><path d="M13.6 0A2.4 2.4 0 0 1 16 2.4v19.2a2.4 2.4 0 0 1-2.4 2.4H2.4A2.4 2.4 0 0 1 0 21.6V2.4A2.4 2.4 0 0 1 2.4 0h11.2z" id="C"/><path d="M7 0a7 7 0 1 1 0 14A7 7 0 0 1 7 0z" id="E"/><path d="m3.78.173.79 2.097 2.237.102a.267.267 0 0 1 .155.475L5.21 4.244l.595 2.16a.267.267 0 0 1-.404.294l-1.87-1.233L1.66 6.698a.267.267 0 0 1-.404-.294l.594-2.16-1.75-1.397a.267.267 0 0 1 .154-.475l2.238-.102L3.28.173a.267.267 0 0 1 .5 0z" id="G"/><path d="M5.88.455a1.613 1.613 0 0 1 2.245 0c.618.586 1.854 1.09 2.719 1.09.865 0 1.586.708 1.586 1.557 0 .868.494 2.06 1.112 2.667.597.586.597 1.596 0 2.202-.598.606-1.112 1.819-1.112 2.667 0 .849-.721 1.556-1.586 1.556-.886 0-2.101.485-2.719 1.091a1.613 1.613 0 0 1-2.245 0c-.618-.586-1.854-1.091-2.719-1.091-.865 0-1.585-.707-1.585-1.556 0-.869-.495-2.06-1.113-2.667a1.54 1.54 0 0 1 0-2.202c.598-.607 1.113-1.819 1.113-2.667 0-.85.72-1.556 1.585-1.556.886 0 2.101-.485 2.72-1.091z" id="I"/><path d="M2.918 0c1.611 0 2.918 3.093 2.918 6.91 0 3.815-1.307 6.908-2.918 6.908C1.306 13.818 0 10.725 0 6.91S1.306 0 2.918 0z" id="K"/><path d="M14.78 0c5.723 0 9.867 1.705 12.291 5.051 4.163 5.735 1.993 14.341 1.44 16.22l-.045.15a6.92 6.92 0 0 1-.066.207l-1-.313c.03-.109 3.096-9.758-1.19-15.638-2.22-3.065-6.067-4.614-11.43-4.614-5.365 0-9.212 1.549-11.433 4.614C-.938 11.573 2.143 21.206 2.174 21.3l-1.016.328c-.125-.406-3.253-10.243 1.33-16.577C4.926 1.705 9.054 0 14.778 0z" id="dc"/><path d="M2.903 0c1.604 0 2.904 3.109 2.904 6.944s-1.3 6.944-2.904 6.944C1.3 13.888 0 10.78 0 6.944S1.3 0 2.903 0z" id="N"/><path d="M2.8 5.81c.359 3.284.781 5.942-.86 6.13-.282.031-.626-.015-.97-.125 1.126-.61.75-3.05.422-6.005C1.095 3.136.922.852 0 .196.219.09.427.029.626.008 2.268-.164 2.44 2.51 2.799 5.81z" id="da"/><path d="M2.888 0c1.594 0 2.887 3.126 2.887 6.982 0 3.855-1.293 6.981-2.887 6.981C1.293 13.963 0 10.837 0 6.982 0 3.126 1.293 0 2.888 0z" id="Q"/><path d="M5.993 5.81c.36 3.284.782 5.942-.86 6.13C3.491 12.112.395 9.75.035 6.467c-.36-3.3 2.142-6.271 3.784-6.46C5.462-.163 5.634 2.51 5.993 5.81z" id="cY"/><path d="M2.903 0c1.603 0 2.903 3.11 2.903 6.945 0 3.836-1.3 6.946-2.903 6.946S0 10.78 0 6.945C0 3.11 1.3 0 2.903 0z" id="T"/><path d="M2.504.008c.198.02.406.083.625.188-.922.656-1.094 2.94-1.392 5.614-.328 2.956-.688 5.395.423 6.005-.344.11-.673.156-.97.125-1.642-.188-1.22-2.846-.86-6.13C.69 2.51.862-.164 2.504.008z" id="cW"/><path d="M2.639 0C4.09 0 5.278 1.13 5.278 2.542c0 .824-.446 1.798-1.338 2.923L2.639 7.23 1.277 5.465C.426 4.288 0 3.314 0 2.542 0 1.144 1.188 0 2.639 0zm-.057.822c-.924 0-1.674.723-1.674 1.615 0 .893.75 1.616 1.674 1.616.925 0 1.674-.723 1.674-1.616 0-.892-.75-1.615-1.674-1.615z" id="W"/><path d="M22.4 0A1.6 1.6 0 0 1 24 1.6v16.8a1.6 1.6 0 0 1-1.6 1.6H1.6A1.6 1.6 0 0 1 0 18.4V1.6A1.6 1.6 0 0 1 1.6 0h20.8z" id="Y"/><path id="aa" d="M18 0v14H0V0z"/><path d="m8.1 2.09 4.315 3.38L6.89 3.035 8.1 2.09zM5.382 4.214 0 0l6.89 3.036-1.508 1.178z" id="ac"/><path d="M10.619 0C11.934 0 13 1.055 13 2.357v10.46c0 .651-.533 1.18-1.19 1.18a1.2 1.2 0 0 1-.592-.157l-4.706-2.67-4.731 2.675a1.197 1.197 0 0 1-1.624-.44A1.17 1.17 0 0 1 0 12.821V2.357C0 1.055 1.066 0 2.381 0h8.238z" id="ae"/><path d="m3.78.171.79 2.076 2.237.101a.264.264 0 0 1 .155.47L5.21 4.202l.595 2.139c.065.235-.199.425-.404.29l-1.87-1.22L1.66 6.63c-.206.135-.47-.055-.404-.29l.594-2.139-1.75-1.384a.264.264 0 0 1 .154-.47l2.238-.1L3.28.17a.268.268 0 0 1 .5 0z" id="ag"/><path d="M12 0a4 4 0 0 1 4 4v8a4 4 0 0 1-4 4H4a4 4 0 0 1-4-4V4a4 4 0 0 1 4-4h8z" id="ai"/><path d="M7.636 6.88a.52.52 0 1 1 0 1.041H1.187a.52.52 0 1 1 0-1.04h6.449zM4.608.05a.392.392 0 0 1 .15.15l1.684 2.99a.392.392 0 0 0 .672.018l.983-1.541a.392.392 0 0 1 .718.27l-.608 4.015a.392.392 0 0 1-.388.333H1.004a.392.392 0 0 1-.388-.333L.004 1.915a.392.392 0 0 1 .718-.271l1.01 1.567a.392.392 0 0 0 .672-.02L4.074.2A.392.392 0 0 1 4.609.05z" id="ak"/><path d="M16 0a4 4 0 0 1 4 4v12a4 4 0 0 1-4 4H4a4 4 0 0 1-4-4V4a4 4 0 0 1 4-4h12z" id="am"/><path id="ao" d="m3.779 0 4.047 5.997L0 6.05z"/><path id="aq" d="m0 0 10.957 6.6h-9.77z"/><path id="as" d="m0 0 10.957 6.6h-9.77z"/><path d="m6.149 0-.221.65h-2.34c.494.416.78.962.845 1.651h1.69l-.221.65H4.42a2.05 2.05 0 0 1-.65 1.287c-.442.403-1.001.663-1.703.78.156.104.377.351.689.767L5.46 9.282H4.017l-2.34-3.146c-.247-.338-.481-.572-.689-.715a1.614 1.614 0 0 0-.897-.26V4.42h.702c.858 0 1.508-.169 1.95-.494.338-.247.533-.572.611-.975H0l.221-.65h3.146c-.065-.481-.247-.858-.559-1.144C2.418.819 1.885.65 1.209.65H.013L.234 0h5.915z" id="au"/><path id="aw" d="m8.246 0 8.832 12.57L0 12.682z"/><path id="ay" d="m0 0 23.557 14.122H2.552z"/><path id="aA" d="m0 0 23.557 14.122H2.552z"/><path d="M19.702 0a.448.448 0 0 1 0 .897h-.508v10.659h.508a.448.448 0 0 1 0 .896H.448a.448.448 0 1 1 0-.896h.517V.896H.448a.449.449 0 0 1 0-.896h19.254zM9.632.897h-7.77v10.659h7.77V.896zm8.667 0h-7.771v10.659h7.77V.896z" id="aC"/><path d="M2.934.052a.448.448 0 1 1 0 .896H.448a.447.447 0 1 1 0-.896h2.486z" id="aE"/><path d="M.541.052a.448.448 0 1 1 0 .896H.46a.447.447 0 1 1 0-.896H.54z" id="aG"/><path d="M.541.052a.448.448 0 1 1 0 .896H.46a.448.448 0 1 1 0-.896H.54z" id="aI"/><path d="M4.574 0c.248 0 .448.2.448.447V5.31c0 .248-.2.449-.448.449H.447A.448.448 0 0 1 0 5.309V.447C0 .2.2 0 .447 0h4.127zm-.447.896H.895V4.86h3.232V.896z" id="aK"/><path d="M.541.052a.448.448 0 1 1 0 .896H.458a.448.448 0 0 1 0-.896h.083z" id="aM"/><path d="M5.548 0a5.548 5.548 0 1 1 0 11.097A5.548 5.548 0 0 1 5.548 0zm0 .462A5.092 5.092 0 0 0 .462 5.548a5.092 5.092 0 0 0 5.086 5.086 5.092 5.092 0 0 0 5.086-5.086A5.092 5.092 0 0 0 5.548.462z" id="aO"/><path d="M6.44 0a6.445 6.445 0 0 1 6.44 6.44c0 2.66-3.378 7.21-5.39 9.695-.263.315-.647.49-1.05.49-.42 0-.788-.175-1.05-.49C3.377 13.65 0 9.082 0 6.44A6.445 6.445 0 0 1 6.44 0zm0 .858A5.587 5.587 0 0 0 .858 6.44c0 1.715 1.942 5.127 5.197 9.152a.53.53 0 0 0 .385.175c.158 0 .297-.052.385-.175 3.255-4.025 5.198-7.437 5.198-9.152A5.587 5.587 0 0 0 6.44.858z" id="aQ"/><path d="M3.028 0a3.029 3.029 0 0 1 0 6.055 3.029 3.029 0 0 1 0-6.055zm0 .84a2.188 2.188 0 1 0 .001 4.377A2.188 2.188 0 0 0 3.028.84z" id="aS"/><path d="M7 0a7 7 0 0 1 7 7 7.008 7.008 0 0 1-7 7A7 7 0 1 1 7 0zm0 1a6 6 0 1 0 6 6 6.007 6.007 0 0 0-6-6z" id="aU"/><path d="M3.5 0a.5.5 0 0 1 .5.5V3h2.5a.5.5 0 1 1 0 1H4v2.5a.5.5 0 1 1-1 0V4H.5a.5.5 0 0 1 0-1H3V.5a.5.5 0 0 1 .5-.5z" id="aW"/><path d="M12.234 12.75c.219.014.414.155.493.364l.024.082.29 1.371 5.884 4.93.061.06c.149.167.183.409.087.611l-.042.074-1.017 1.508-.049.063a.563.563 0 0 1-.487.181l-.078-.015-7.837-2.129-7.837 2.129a.563.563 0 0 1-.564-.166l-.05-.063-1.016-1.508a.563.563 0 0 1 .044-.686l.061-.06 5.884-4.929.291-1.371a.563.563 0 0 1 .517-.445h.075l.075.011c.279.06.465.315.444.592l-.01.075-.332 1.562a.563.563 0 0 1-.135.263l-.054.052-5.644 4.727.508.754 5.596-1.52-1.233-.334-.073-.025a.563.563 0 0 1-.339-.583l.016-.083.025-.072a.563.563 0 0 1 .583-.339l.083.016 3.085.837 3.086-.837a.563.563 0 0 1 .665.323l.025.072a.563.563 0 0 1-.323.666l-.072.025-1.234.334 5.596 1.52.509-.754-5.644-4.727-.054-.052a.563.563 0 0 1-.115-.19l-.02-.073-.332-1.562-.01-.075a.563.563 0 0 1 .37-.57l.073-.022.076-.01.075-.001zM9.563 0c1.574 0 2.812 1.445 2.812 3.188 0 1.122-.513 2.12-1.3 2.69l3.218 1.446c.177.08.298.243.326.431l.006.082v4.234l4.285 3.368a.563.563 0 0 1 .141.72l-.046.07a.563.563 0 0 1-.721.14l-.07-.046-4.5-3.537a.563.563 0 0 1-.207-.357l-.007-.085V8.2L9.563 6.428 5.625 8.2v4.144a.563.563 0 0 1-.152.384l-.063.058-4.5 3.537a.562.562 0 0 1-.757-.828l.062-.056 4.285-3.37V7.838c0-.194.1-.372.26-.474l.072-.039 3.217-1.447C7.263 5.308 6.75 4.31 6.75 3.187 6.75 1.446 7.988 0 9.563 0zm0 1.125c-.912 0-1.688.906-1.688 2.063 0 1.156.776 2.062 1.688 2.062.91 0 1.687-.906 1.687-2.063 0-1.156-.776-2.062-1.687-2.062z" id="aY"/><path d="M4.806.257a.562.562 0 0 1-.166.778 7.68 7.68 0 0 0-3.515 6.457c0 .834.133 1.65.39 2.425a.563.563 0 0 1-1.068.355A8.804 8.804 0 0 1 0 7.492 8.804 8.804 0 0 1 4.028.09a.562.562 0 0 1 .778.167zm8.828-.143a8.804 8.804 0 0 1 3.991 7.378c0 .947-.15 1.875-.44 2.757a.563.563 0 1 1-1.069-.352 7.68 7.68 0 0 0 .384-2.405 7.679 7.679 0 0 0-3.482-6.436.562.562 0 0 1 .616-.942z" id="ba"/><path id="c" d="M80 0v1223H0V0z"/><path d="M5.09 0a2.122 2.122 0 0 1 1.676.752c.414.49.579 1.142.448 1.768a4.06 4.06 0 0 1 1.98 2.906l.028.23.07.762c.347.044.654.244.834.542.179.298.21.662.082.986a1.135 1.135 0 0 1-.732.671 3.354 3.354 0 0 1-1.12 2.47l-.155.131-.468.37c.6.196 1.12.574 1.49 1.08.328.451.522.982.56 1.534l.008.208v3.365c0 .103-.07.19-.167.217l-.06.008H.722a.227.227 0 0 1-.219-.165l-.008-.06V14.41c0-.625.199-1.235.568-1.741.328-.45.777-.8 1.293-1.009l.196-.072-.467-.37a3.356 3.356 0 0 1-1.276-2.6 1.134 1.134 0 0 1-.732-.672A1.12 1.12 0 0 1 .16 6.96c.157-.26.412-.447.706-.518l.128-.024.07-.763A4.057 4.057 0 0 1 3.071 2.52 2.083 2.083 0 0 1 3.486.793 2.12 2.12 0 0 1 4.9.013l.187-.012h.002zm12.896 1.567A3.84 3.84 0 0 1 19.31 3.84l.032.222.114.976c.369.002.713.182.92.481.208.299.253.679.12 1.016a1.112 1.112 0 0 1-.655.633l-.131.04.052.451a2.625 2.625 0 0 1-.735 1.622 1.869 1.869 0 0 0-.178.182c.104.021.211.03.318.024a.228.228 0 0 1 .217.128.22.22 0 0 1-.038.245 2.508 2.508 0 0 1-.667.504 3.09 3.09 0 0 1 1.387 2.364l.007.205v4.845c0 .102-.071.188-.167.214l-.06.008h-8.838a.23.23 0 0 1-.16-.065.222.222 0 0 1-.06-.1l-.007-.057v-4.845c0-1.03.522-1.993 1.394-2.57-.25-.129-.475-.3-.667-.503a.22.22 0 0 1-.039-.246.227.227 0 0 1 .164-.124l.054-.003c.11.006.218-.003.322-.024a1.887 1.887 0 0 0-.178-.182 2.628 2.628 0 0 1-.712-1.42l-.024-.202.052-.451a1.116 1.116 0 0 1-.786-.673 1.081 1.081 0 0 1 .12-1.016c.18-.262.467-.432.783-.472l.137-.009.114-.976a3.832 3.832 0 0 1 1.229-2.384c.629-.574 1.43-.929 2.282-1.015l.233-.017a3.99 3.99 0 0 1 2.727.92zm-5.539 8.94-.167.108a2.826 2.826 0 0 0-1.22 2.134l-.005.184v4.804h1.585v-4.623a.133.133 0 0 1 .134-.13c.058 0 .108.038.127.09l.007.04v4.623h2.39v-4.633a.224.224 0 0 1-.065-.07 6.124 6.124 0 0 0-.868-1.163.99.99 0 0 1-.15.489.229.229 0 0 1-.22.105l-.064-.017a2.558 2.558 0 0 1-1.484-1.679l.005-.131-.005-.131zm5.962 0-.005.13.005.132a2.557 2.557 0 0 1-1.315 1.602l-.164.077a.234.234 0 0 1-.289-.088.989.989 0 0 1-.15-.49 6.126 6.126 0 0 0-.868 1.163l-.028.039-.035.032v4.633h2.39v-4.623c0-.073.06-.132.134-.132.06 0 .11.038.128.09l.006.042v4.623h1.586v-4.804c0-.992-.53-1.912-1.395-2.426zM7.474 11.792l-.626.496a1.85 1.85 0 0 1-.125 1.785 1.884 1.884 0 0 1-1.584.858c-.64 0-1.237-.324-1.583-.858a1.85 1.85 0 0 1-.19-1.625l.065-.16-.626-.496a2.73 2.73 0 0 0-1.474.962 2.691 2.691 0 0 0-.564 1.457l-.007.199v3.324h1.528v-3.112a.134.134 0 0 1 .261-.042l.007.042v3.112h5.168v-3.112a.134.134 0 0 1 .258-.04l.01.04v3.112H9.52V14.41c0-.6-.201-1.182-.572-1.656a2.73 2.73 0 0 0-1.474-.962zm-.846.663a2.615 2.615 0 0 1-2.81.107l-.168-.107-.054.15c-.138.454-.066.95.203 1.35.3.443.802.71 1.34.71.539 0 1.042-.267 1.34-.71a1.586 1.586 0 0 0 .15-1.5zm8.8-2.879-.115.153c-.282.345-.654.61-1.079.766a2.559 2.559 0 0 1-1.517.075c.002.057.002.113 0 .17A2.298 2.298 0 0 0 14 12.193a.73.73 0 0 0 .092-.41.222.222 0 0 1 .135-.219.23.23 0 0 1 .255.05 6.4 6.4 0 0 1 .946 1.23c.263-.446.58-.86.945-1.23a.23.23 0 0 1 .256-.05.222.222 0 0 1 .135.22.73.73 0 0 0 .092.409 2.298 2.298 0 0 0 1.282-1.453 2.168 2.168 0 0 1 0-.17 2.56 2.56 0 0 1-1.516-.076 2.502 2.502 0 0 1-1.193-.918zm-6.33-2.298L8.042 8.333a1.213 1.213 0 0 1-.604.995c-.358.209-.8.223-1.17.037a1.216 1.216 0 0 1-.645-.82l-.022-.135h-.925a1.214 1.214 0 0 1-.668.95c-.37.185-.81.171-1.168-.036a1.214 1.214 0 0 1-.59-.856l-.015-.135-1.054-1.055-.094 1.03a3.086 3.086 0 0 0 1.003 2.568l.158.134 1.435 1.137a2.345 2.345 0 0 0 2.752.116l.16-.116L8.03 11.01a3.089 3.089 0 0 0 1.173-2.495l-.012-.207-.095-1.03zm-4.384 3.69c.2.213.47.332.75.332.281 0 .55-.12.75-.332a.12.12 0 0 1 .178.001.144.144 0 0 1-.001.192c-.247.263-.58.41-.927.41-.346 0-.68-.147-.926-.41a.144.144 0 0 1-.002-.192.12.12 0 0 1 .178-.001zm11.831-2.812c-.355-.006-.7.12-.964.353a.23.23 0 0 1-.305 0c-.226-.2-.512-.321-.813-.348l-.151-.005-.142.01c-.423.049-.802.284-1.028.643-.105.273-.291.51-.535.678-.244.168-.534.26-.832.264a2.27 2.27 0 0 0 3.462-.368.228.228 0 0 1 .191-.101c.077 0 .15.038.191.101a2.27 2.27 0 0 0 3.463.368 1.503 1.503 0 0 1-.832-.264 1.455 1.455 0 0 1-.535-.678 1.41 1.41 0 0 0-1.17-.653zM15.5.906 15.27.91a3.71 3.71 0 0 0-2.344.962c-.58.53-.97 1.23-1.11 1.991l-.034.23-.419 3.572c.048.535.278 1.039.654 1.43.095.085.182.178.26.279.292-.136.516-.38.623-.678.252-.417.68-.702 1.168-.78.488-.078.987.06 1.362.375a1.697 1.697 0 0 1 1.36-.375c.489.078.916.363 1.169.78.107.298.331.542.622.678.078-.1.166-.194.26-.28.33-.341.547-.77.628-1.23l.027-.2-.419-3.57a3.574 3.574 0 0 0-1.264-2.326A3.713 3.713 0 0 0 15.73.918L15.5.907zM3.436 7.326l-.124.01a.959.959 0 0 0-.539.277.943.943 0 0 0-.27.665c-.005.255.093.501.273.683a.961.961 0 0 0 1.367 0 .945.945 0 0 0 .273-.683.944.944 0 0 0-.287-.681.961.961 0 0 0-.693-.271zm3.36 0-.124.01a.959.959 0 0 0-.539.277.944.944 0 0 0-.27.665c-.005.255.094.5.274.682a.96.96 0 0 0 1.365 0 .944.944 0 0 0 .274-.682.944.944 0 0 0-.287-.681.961.961 0 0 0-.693-.271zM.96 6.69a.87.87 0 0 0-.587.419.856.856 0 0 0 .34 1.184l.097.045.005-.055.145-1.593zm8.352 0 .147 1.593v.055a.866.866 0 0 0 .501-.515.856.856 0 0 0-.063-.713.87.87 0 0 0-.585-.42zM6.18 4.402a.051.051 0 0 0-.03.018 4.695 4.695 0 0 1-2.216 1.379 4.73 4.73 0 0 1-2.33.062l-.286-.074-.104 1.145L2.27 7.989c.093-.372.357-.68.713-.828.356-.15.762-.123 1.096.07.292.17.498.45.574.772l.024.141h.925c.043-.381.265-.72.598-.915.335-.194.741-.22 1.098-.07.312.13.553.383.67.693l.042.137 1.056-1.057-.07-.767a3.028 3.028 0 0 1-1.638-.463 2.992 2.992 0 0 1-1.122-1.27.052.052 0 0 0-.03-.026l-.02-.003H6.18zm7.963 1.384c.172 0 .337.068.458.189a.63.63 0 0 1 .185.454.63.63 0 0 1-.185.454.648.648 0 0 1-.916 0 .63.63 0 0 1-.185-.454.63.63 0 0 1 .185-.454.647.647 0 0 1 .458-.19zm3.214 0a.642.642 0 1 1 0 1.284.642.642 0 0 1 0-1.284zm2.13-.485.193 1.643a.848.848 0 0 0 .57-.514.823.823 0 0 0-.088-.755.859.859 0 0 0-.675-.374zm-8.118 0a.86.86 0 0 0-.675.375.822.822 0 0 0-.088.754c.082.215.25.386.461.476l.109.037.193-1.642zM5.063 2.23a3.848 3.848 0 0 0-2.472.963 3.784 3.784 0 0 0-1.245 2.325c.81.248 1.674.259 2.49.033A4.427 4.427 0 0 0 5.95 4.244a.322.322 0 0 1 .531.078c.22.471.571.87 1.012 1.15.387.245.828.39 1.283.421l.196.007-.02-.22a3.782 3.782 0 0 0-1.259-2.484 3.848 3.848 0 0 0-2.629-.966zm.02-1.963-.175.014c-.464.058-.89.29-1.192.65a1.818 1.818 0 0 0-.399 1.456 4.128 4.128 0 0 1 3.645 0A1.82 1.82 0 0 0 6.527.89 1.854 1.854 0 0 0 5.084.267z" id="be"/><path d="M21.563 0c.418 0 .69.44.503.814l-1.5 3a.563.563 0 0 1-.503.311h-18a.562.562 0 0 1-.503-.31l-1.5-3A.562.562 0 0 1 .563 0h21zm-.91 1.125H1.472L2.41 3h17.305l.937-1.875z" id="bg"/><path d="M6.564 0C3.907 0 1.68 2.211 1.091 5.184L0 5.17A6.753 6.753 0 0 1 6.365.003l.2-.003z" id="bi"/><path id="bk" d="m5.064 0 5.424 7.537L0 7.603z"/><path id="bm" d="m0 0 14.467 8.467h-12.9z"/><path id="bo" d="m0 0 14.467 8.467h-12.9z"/><path d="M5.541 0a.6.6 0 0 1 .6.6v4.941a.6.6 0 0 1-.6.6H.6a.6.6 0 0 1-.6-.6V.6A.6.6 0 0 1 .6 0h4.941zm-.6 1.2H1.2v3.741h3.741V1.2z" id="bq"/><path d="M5.541 0a.6.6 0 0 1 .6.6v4.941a.6.6 0 0 1-.6.6H.6a.6.6 0 0 1-.6-.6V.6A.6.6 0 0 1 .6 0h4.941zm-.6 1.2H1.2v3.741h3.741V1.2z" id="bs"/><path d="M5.541 0a.6.6 0 0 1 .6.6v4.94a.6.6 0 0 1-.6.6H.6a.6.6 0 0 1-.6-.6V.6A.6.6 0 0 1 .6 0h4.941zm-.6 1.2H1.2v3.74h3.741V1.2z" id="bu"/><path d="M5.541 0a.6.6 0 0 1 .6.6v10.296a.6.6 0 0 1-.6.6H.6a.6.6 0 0 1-.6-.6V.6A.6.6 0 0 1 .6 0h4.941zm-.6 1.2H1.2v9.168h3.741V1.2z" id="bw"/><path d="m16.793.15 12.4 10.897a.6.6 0 1 1-.793.901l-.774-.68v9.429l3.581-3.148a.6.6 0 0 1 .792 0l12.4 10.898a.6.6 0 1 1-.792.901l-.775-.68V40.8H47.4a.6.6 0 1 1 0 1.2H.6a.6.6 0 1 1 0-1.2h4.568V11.267l-.775.681a.598.598 0 0 1-.846-.054.6.6 0 0 1 .054-.847L16.001.149a.6.6 0 0 1 .792 0zm-.396 1.249L6.368 10.213V40.8h14.006V28.667l-.774.681a.598.598 0 0 1-.847-.054.6.6 0 0 1 .054-.847l7.619-6.696V10.213l-10.03-8.814zm15.206 17.4-10.029 8.814V40.8h20.058V27.613l-10.029-8.814z" id="by"/><path d="M5.541 0a.6.6 0 0 1 .6.6v4.941a.6.6 0 0 1-.6.6H.6a.6.6 0 0 1-.6-.6V.6A.6.6 0 0 1 .6 0h4.941zm-.6 1.2H1.2v3.741h3.741V1.2z" id="bA"/><path d="M8.677 0c1.062 0 2.046.438 2.757 1.226.69.766 1.066 1.797 1.066 2.902 0 1.134-.411 2.166-1.258 3.21l-.09.11-.278.32-.199.215-.218.222-.374.362-.29.27-.513.46-2.105 1.849a1.387 1.387 0 0 1-1.85 0l-.354-.314L3.415 9.47l-.707-.633-.423-.395-.242-.236-.218-.223-.199-.214-.187-.213-.18-.217C.41 6.294 0 5.262 0 4.128c0-1.105.375-2.136 1.066-2.902A3.68 3.68 0 0 1 3.823 0c.805 0 1.55.263 2.193.771.063.05.125.102.186.156l.048.046.048-.046.186-.156A3.48 3.48 0 0 1 8.677 0zm0 1.5a1.98 1.98 0 0 0-1.263.448c-.201.159-.386.356-.552.59a.75.75 0 0 1-1.224 0 2.83 2.83 0 0 0-.552-.59A1.98 1.98 0 0 0 3.823 1.5a2.18 2.18 0 0 0-1.644.731c-.435.482-.679 1.154-.679 1.897 0 .767.282 1.475.923 2.266l.08.096.162.19.174.19.19.199.33.323.399.371.487.438 1.007.883.997.877.284-.251 1.896-1.664.456-.413.373-.353.31-.312.182-.194.168-.19.159-.19c.641-.791.923-1.499.923-2.266 0-.743-.244-1.415-.68-1.897A2.18 2.18 0 0 0 8.678 1.5z" id="bC"/><path d="M8.677 0c1.062 0 2.046.438 2.757 1.226.69.766 1.066 1.797 1.066 2.902 0 1.134-.411 2.166-1.258 3.21l-.09.11-.278.32-.199.215-.218.222-.374.362-.29.27-.513.46-2.105 1.849a1.387 1.387 0 0 1-1.85 0l-.354-.314L3.415 9.47l-.707-.633-.423-.395-.242-.236-.218-.223-.199-.214-.187-.213-.18-.217C.41 6.294 0 5.262 0 4.128c0-1.105.375-2.136 1.066-2.902A3.68 3.68 0 0 1 3.823 0c.805 0 1.55.263 2.193.771.063.05.125.102.186.156l.048.046.048-.046.186-.156A3.48 3.48 0 0 1 8.677 0zm0 1.5a1.98 1.98 0 0 0-1.263.448c-.201.159-.386.356-.552.59a.75.75 0 0 1-1.224 0 2.83 2.83 0 0 0-.552-.59A1.98 1.98 0 0 0 3.823 1.5a2.18 2.18 0 0 0-1.644.731c-.435.482-.679 1.154-.679 1.897 0 .767.282 1.475.923 2.266l.08.096.162.19.174.19.19.199.33.323.399.371.487.438 1.007.883.998.877.283-.251 1.896-1.664.456-.413.373-.353.31-.312.182-.194.168-.19.159-.19c.641-.791.923-1.499.923-2.266 0-.743-.244-1.415-.68-1.897A2.18 2.18 0 0 0 8.678 1.5z" id="bE"/><path d="M8.677 0c1.062 0 2.046.438 2.757 1.226.69.766 1.066 1.797 1.066 2.902 0 1.134-.411 2.166-1.258 3.21l-.09.11-.278.32-.199.215-.218.222-.374.362-.29.27-.513.46-2.105 1.849a1.387 1.387 0 0 1-1.85 0l-.354-.314L3.415 9.47l-.707-.633-.423-.395-.242-.236-.218-.223-.199-.214-.187-.213-.18-.217C.41 6.294 0 5.262 0 4.128c0-1.105.375-2.136 1.066-2.902A3.68 3.68 0 0 1 3.823 0c.805 0 1.55.263 2.193.771.063.05.125.102.186.156l.048.046.048-.046.186-.156A3.48 3.48 0 0 1 8.677 0z" id="bG"/><path d="M8.677 0c1.062 0 2.046.438 2.757 1.226.69.766 1.066 1.797 1.066 2.902 0 1.134-.411 2.167-1.258 3.21l-.09.11-.278.32-.199.215-.218.222-.374.362-.29.27-.513.46-2.105 1.849a1.387 1.387 0 0 1-1.85 0l-.354-.314L3.415 9.47l-.707-.633-.423-.395-.242-.236-.218-.223-.199-.214-.187-.213-.18-.217C.41 6.294 0 5.262 0 4.128c0-1.105.375-2.136 1.066-2.902A3.68 3.68 0 0 1 3.823 0c.805 0 1.55.263 2.193.771.063.05.125.102.186.156l.048.046.048-.046.186-.156A3.48 3.48 0 0 1 8.677 0z" id="bI"/><path d="M6 0a6 6 0 1 1 0 12A6 6 0 0 1 6 0zm0 1a5 5 0 1 0 0 10A5 5 0 0 0 6 1zm.75 4.6v3.8h-1.5V5.6h1.5zm0-2.8v1.5h-1.5V2.8h1.5z" id="bK"/><path d="M17.395 0a1 1 0 0 1 .74.327l7.605 8.366a1 1 0 0 1 .26.673V28a4 4 0 0 1-4 4H4a4 4 0 0 1-4-4V4a4 4 0 0 1 4-4h13.395zm-.443 2H4a2 2 0 0 0-2 2v24a2 2 0 0 0 2 2h18a2 2 0 0 0 2-2V9.752L16.952 2z" id="bM"/><path d="M1 0a1 1 0 0 1 .993.883L2 1v5.691a2 2 0 0 0 1.85 1.994l.15.006h4.605a1 1 0 0 1 .117 1.993l-.117.007H4a4 4 0 0 1-3.995-3.8L0 6.69V1a1 1 0 0 1 1-1z" id="bO"/><path d="M5.903 0a1 1 0 0 1 .993.883L6.903 1l-.001 7.75 3.197-3.195.087-.08c.91-.753 2.16.497 1.406 1.407l-.08.087-4.902 4.903a.979.979 0 0 1-.854.283l-.096-.02-.094-.029-.09-.037-.085-.045-.11-.076-.051-.042L.293 6.97A1 1 0 0 1 .21 5.65l.083-.094a1 1 0 0 1 1.32-.083l.094.083L4.902 8.75V1a1 1 0 0 1 .884-.993L5.903 0z" id="bQ"/><path d="M15 0a1 1 0 0 1 .117 1.993L15 2H1A1 1 0 0 1 .883.007L1 0h14z" id="bS"/><path d="m2.58.085.057.048L4.175 1.63 5.318.942a.469.469 0 0 1 .464-.01l.06.038 1.16.875a.469.469 0 0 1-.507.786l-.059-.038-.906-.684-1.18.712a.469.469 0 0 1-.516-.021l-.054-.045L2.266 1.08.744 2.186a.469.469 0 0 1-.61-.05L.09 2.083a.469.469 0 0 1 .05-.61l.053-.045L2.035.09A.469.469 0 0 1 2.58.085z" id="bU"/><path d="M11.214 7a1.72 1.72 0 0 1 1.642 1.21l.418-.088a1.094 1.094 0 0 1 1.314.981l.003.09v4.696c0 .574-.442 1.045-1.004 1.09l-.09.004H1.095a1.094 1.094 0 0 1-1.09-1.004L0 13.889v-4.69a1.094 1.094 0 0 1 1.232-1.085l.093.016.139.03a1.72 1.72 0 0 1 1.52-1.157L3.09 7h8.125zm5.166-5.853c.82 0 1.52.578 1.683 1.371l.019.105.548 3.836h-2.572V14.5a.469.469 0 0 1-.937 0V6.46h-2.572l.548-3.837a1.719 1.719 0 0 1 1.595-1.473l.106-.003h1.582zm-2.882 7.89h-.016l-1.266.264a.781.781 0 0 0-.618.686l-.004.079v2.47H2.89v-2.478a.781.781 0 0 0-.54-.743l-.076-.02-1.147-.249a.156.156 0 0 0-.186.12l-.003.017v4.706c0 .074.05.136.12.152l.036.004h12.404a.156.156 0 0 0 .152-.12l.004-.036V9.193a.156.156 0 0 0-.156-.156zm-2.284-1.1H3.089a.781.781 0 0 0-.694.423l.077.018a1.719 1.719 0 0 1 1.352 1.57l.003.11v1.54h6.829v-1.532c0-.74.472-1.388 1.157-1.625l.117-.035a.782.782 0 0 0-.636-.464l-.08-.005zM8.089 0c.574 0 1.044.442 1.09 1.004l.004.09v3.75c0 .574-.442 1.044-1.004 1.09l-.09.003h-5a1.094 1.094 0 0 1-1.09-1.004l-.004-.09v-3.75C1.995.52 2.437.05 3 .004L3.09 0h5zm8.29 2.084h-1.581a.781.781 0 0 0-.759.596l-.014.075-.396 2.767h3.92l-.396-2.767a.781.781 0 0 0-.696-.667l-.077-.004zM8.09.937h-5a.156.156 0 0 0-.152.12l-.004.037v3.75c0 .074.051.136.12.152L3.089 5h5a.156.156 0 0 0 .152-.12l.004-.036v-3.75a.156.156 0 0 0-.12-.152L8.089.938z" id="bW"/><path d="M3.117 0c1.435 0 2.524 1.555 2.524 3.414 0 .146-.007.291-.02.434l-.025.213-.034.205.06.083c.33.489.538 1.066.596 1.678l.013.185.003.17c0 1.706-1.143 3.132-2.653 3.377l-.004 3.183a10.8 10.8 0 0 1 3.107.215c.91.193 1.766.488 2.532.863v-2.474C7.69 11.315 6.53 9.88 6.53 8.164c0-.686.186-1.342.525-1.897l.088-.137.059-.083-.033-.205a4.603 4.603 0 0 1-.031-.284l-.009-.145-.005-.218c0-1.858 1.089-3.414 2.523-3.414 1.435 0 2.524 1.556 2.524 3.414 0 .146-.007.291-.02.434l-.025.213-.033.205.06.083c.33.489.537 1.066.595 1.678l.013.185.004.171c0 1.705-1.145 3.132-2.655 3.377l-.004 2.976c.365.231.7.482.998.75a1.843 1.843 0 0 1 1.657-1.324l.113-.003.138.005.076-.079c.34-.334.785-.55 1.267-.61l.133-.011.134-.004c.892 0 1.673.536 2.013 1.321l.048.12.033.01c.406.129.715.479.784.909l.011.093.004.09c0 .602-.465 1.095-1.056 1.14l-.089.004H11.48a.445.445 0 0 1-.441-.385l-.004-.06v-.015c-.925-1.108-2.59-2.027-4.536-2.44a9.881 9.881 0 0 0-2.924-.192l-.002 1.474a.444.444 0 0 1-.888 0v-1.342a5.582 5.582 0 0 0-1.426.497c-.152.079-.294.164-.424.255a.445.445 0 1 1-.51-.73c.162-.113.336-.218.52-.315a6.599 6.599 0 0 1 1.84-.615V9.764C1.16 9.534 0 8.1 0 6.383c0-.686.186-1.343.525-1.897l.088-.137.059-.083-.034-.205a4.603 4.603 0 0 1-.03-.285l-.01-.144-.004-.218C.594 1.555 1.683 0 3.117 0zm11.506 14.131c-.428 0-.82.207-1.062.55a.445.445 0 0 1-.466.175.954.954 0 0 0-1.16.743l-.01.08v.358h4.446c.11 0 .202-.068.238-.165l.012-.042.004-.046a.261.261 0 0 0-.181-.25l-.04-.005-.035.002a.445.445 0 0 1-.469-.356 1.303 1.303 0 0 0-1.277-1.044zM9.648 2.671c-.86 0-1.632 1.104-1.632 2.524 0 .296.033.584.098.857.033.136 0 .28-.09.387a2.702 2.702 0 0 0-.602 1.725c0 1.233.778 2.248 1.794 2.476v-.598l.007-1.026v-.207l-.894-.482c-.504-.271-.13-1.01.367-.81l.055.026.474.255.002-1.857c0-.569.818-.592.886-.07l.004.07v2.607l-.001.165.334-.438a.445.445 0 0 1 .569-.12l.055.036a.445.445 0 0 1 .12.569l-.036.055-1.045 1.373-.001.444c1-.241 1.763-1.247 1.763-2.468 0-.651-.218-1.26-.602-1.725a.445.445 0 0 1-.09-.388 3.69 3.69 0 0 0 .098-.856c0-1.42-.772-2.523-1.633-2.523zM3.118.892c-.862 0-1.634 1.102-1.634 2.523 0 .296.034.584.1.856.032.136-.002.28-.09.388A2.702 2.702 0 0 0 .89 6.383c0 1.233.778 2.248 1.794 2.475V8.26l.008-1.232-.895-.482a.445.445 0 0 1-.206-.548l.025-.055a.445.445 0 0 1 .548-.206l.055.025.474.255.002-1.857.004-.071c.068-.522.887-.498.886.071v2.607l-.002.165.335-.438.038-.046c.356-.375.972.094.704.537l-.034.049-1.044 1.37v.447c1-.242 1.76-1.248 1.76-2.468 0-.651-.218-1.261-.602-1.725a.445.445 0 0 1-.09-.388 3.69 3.69 0 0 0 .099-.856c0-1.42-.772-2.523-1.633-2.523z" id="bY"/><path d="m10.721 0 6.323 14.344H0L6.323 0h4.398zm-.55.844H6.873L1.293 13.5H15.75L10.17.844zM1.829 2.25c.925 0 1.603 1.64 1.603 2.981 0 .978-.478 1.609-1.227 1.763v1.14H1.36V6.974C.665 6.787.226 6.168.226 5.23c0-1.34.677-2.981 1.603-2.981zm0 .844c-.09 0-.212.152-.331.39l-.04.082-.07.164c-.174.432-.319 1.01-.319 1.501 0 .412.101.677.291.822V5.2h.844l.001.909c.25-.125.383-.405.383-.879 0-.437-.114-.942-.262-1.352L2.27 3.73l-.07-.164c-.132-.284-.271-.472-.371-.472zM14.766 0c.926 0 1.603 1.64 1.603 2.981 0 .978-.478 1.609-1.227 1.763v1.14h-.844V4.724c-.696-.186-1.135-.805-1.135-1.742 0-1.34.678-2.981 1.603-2.981zm0 .844c-.09 0-.211.152-.33.39l-.04.082-.07.164c-.175.432-.32 1.01-.32 1.501 0 .412.102.677.292.822V2.95h.844v.909c.25-.125.384-.405.384-.879 0-.437-.115-.942-.262-1.352l-.057-.149-.07-.164c-.132-.284-.27-.472-.37-.472z" id="ca"/><path d="M.844 8.438v1.808H0V8.438h.844zm0-2.813v1.808H0V5.625h.844zm0-2.813v1.809H0V2.812h.844zM.844 0v1.808H0V0h.844z" id="cc"/><path d="M8.036 0c.237 0 .433.176.464.405l.005.064v12.5a.469.469 0 0 1-.406.464l-.063.005H2.66a.469.469 0 0 1-.465-.406l-.004-.063V11.34H.937v3a.469.469 0 0 1-.405.465l-.063.004a.469.469 0 0 1-.465-.405L0 14.341V.47A.469.469 0 0 1 .933.405L.937.47v3h1.255V2.344c0-1.253.983-2.276 2.22-2.34L4.535 0h3.5zm5.245 0a2.344 2.344 0 0 1 2.344 2.344v1.125h1.255v-3l.004-.064a.469.469 0 0 1 .929 0l.004.064V14.34l-.004.064a.469.469 0 0 1-.401.4l-.064.005-.063-.004a.469.469 0 0 1-.401-.401l-.004-.064v-3h-1.255v1.628c0 .259-.21.469-.469.469H9.781a.469.469 0 0 1-.468-.47V.469c0-.258.21-.468.468-.468h3.5zM7.566.938h-3.03c-.745 0-1.354.578-1.403 1.31l-.003.096L3.129 12.5h4.437V.937zm5.716 0H10.25V12.5h4.437V2.344c0-.777-.63-1.406-1.406-1.406zM2.192 4.405H.936v6H2.19v-6zm14.688 0h-1.255v6h1.255v-6z" id="ce"/><path d="M.469 0c.237 0 .433.176.464.405L.937.47v2.265a.469.469 0 0 1-.933.063L0 2.734V.469C0 .209.21 0 .469 0zM6.21 0c.237 0 .433.176.464.405L6.68.47v2.265l-.005.063a.469.469 0 0 1-.929 0l-.004-.063V.469l.004-.064A.469.469 0 0 1 6.21 0z" id="cg"/><path d="M17.703 0c.261 0 .477.194.511.446l.005.07v15.983l.198.001a.516.516 0 0 1 .07 1.027l-.07.004H.542a.516.516 0 0 1-.07-1.026l.07-.005H1.72v-1.06C.59 15.304 0 14.67 0 13.234c0-1.974.956-4.296 2.234-4.296 1.279 0 2.235 2.322 2.235 4.296 0 1.436-.59 2.07-1.719 2.206v1.06h6.188v-2.636H6.077a.516.516 0 0 1-.07-1.026l.07-.005h2.86v-.962H5.665a.516.516 0 0 1-.07-1.026l.07-.005h3.274V9.696H5.183a.516.516 0 0 1-.07-1.026l.07-.005h3.755V7.68H5.183a.516.516 0 0 1-.07-1.026l.07-.005h3.755V5.643H5.183a.516.516 0 0 1-.07-1.026l.07-.005h3.755v-1.52H3.78V7.35a.516.516 0 0 1-.445.51l-.07.006a.516.516 0 0 1-.511-.446l-.005-.07V2.578c0-.26.194-.477.446-.51l.07-.006h5.672V.516c0-.261.193-.477.445-.511L9.453 0h8.25zm-.515 1.031h-7.22V16.5h7.22V1.031zM2.233 9.97c-.458 0-1.203 1.809-1.203 3.265 0 .79.16 1.082.688 1.17l.001-1.054a.515.515 0 1 1 1.03 0v1.054c.528-.089.688-.38.688-1.17 0-1.456-.745-3.265-1.204-3.265z" id="ci"/><path d="M4.64 8.25c.262 0 .477.194.512.446l.004.07v2.062a.516.516 0 0 1-.445.511l-.07.005H.516a.516.516 0 0 1-.07-1.027l.07-.005h3.609v-1.03H.515a.516.516 0 0 1-.51-.446L0 8.766c0-.261.194-.477.446-.511l.07-.005H4.64zm0-4.125c.262 0 .477.194.512.446l.004.07v2.062a.516.516 0 0 1-.445.511l-.07.005H.516a.516.516 0 0 1-.07-1.027l.07-.005h3.609v-1.03H.515a.516.516 0 0 1-.51-.446L0 4.64c0-.261.194-.477.446-.511l.07-.005H4.64zM4.64 0c.262 0 .477.194.512.446l.004.07v2.062a.516.516 0 0 1-.445.511l-.07.005H.516a.516.516 0 0 1-.07-1.027l.07-.005h3.609v-1.03H.515a.516.516 0 0 1-.51-.446L0 .516C0 .255.194.039.446.005L.516 0H4.64z" id="ck"/><path d="M.482 0c.266 0 .482.5.482 1.116V9H9v8.052h9.747c.692 0 1.252.213 1.252.475 0 .261-.56.473-1.252.473H1.637c-.69 0-1.251-.212-1.251-.473 0-.025.005-.049.014-.072-.226-.086-.4-.544-.4-1.096V1.116C0 .5.216 0 .482 0z" id="cm"/><path d="M2.917 0a2.917 2.917 0 1 1 0 5.833 2.917 2.917 0 0 1 0-5.833z" id="co"/><path d="m1.795.144.343.696.77.112c.198.029.284.26.166.411l-.024.028-.556.542.131.765a.258.258 0 0 1-.342.286l-.032-.014-.687-.362-.687.362a.258.258 0 0 1-.378-.237l.004-.035.13-.765-.555-.542A.258.258 0 0 1 .185.959L.22.952.989.84l.344-.696a.257.257 0 0 1 .462 0zM1.39 1.189a.257.257 0 0 1-.193.141l-.386.056.279.273c.052.05.08.12.077.192l-.003.036-.066.384.345-.181a.258.258 0 0 1 .207-.015l.033.015.345.18-.066-.383a.257.257 0 0 1 .05-.201l.024-.027.28-.273-.386-.056a.257.257 0 0 1-.176-.11l-.018-.03-.173-.351-.173.35z" id="cq"/><path d="M17.569 0c.207 0 .375.168.375.375v2a.375.375 0 0 1-.75 0V1.75H.75v.625a.375.375 0 0 1-.75 0v-2a.375.375 0 0 1 .75 0V1h16.444V.375c0-.207.168-.375.375-.375z" id="cs"/><path d="M8.036 0c.237 0 .433.176.464.405l.005.064v12.5a.469.469 0 0 1-.406.464l-.063.005H2.66a.469.469 0 0 1-.465-.406l-.004-.063V11.34H.937v3a.469.469 0 0 1-.405.465l-.063.004a.469.469 0 0 1-.465-.405L0 14.34V.47A.469.469 0 0 1 .933.405L.937.47v3h1.255V2.344c0-1.253.983-2.276 2.22-2.34L4.535 0h3.5zm5.245 0a2.344 2.344 0 0 1 2.344 2.344v1.125h1.255v-3l.004-.064a.469.469 0 0 1 .929 0l.004.064V14.34l-.004.064a.47.47 0 0 1-.401.4l-.064.005-.063-.004a.47.47 0 0 1-.401-.401l-.005-.064v-3h-1.254v1.628c0 .259-.21.469-.469.469H9.781a.469.469 0 0 1-.469-.47V.469c0-.258.21-.468.47-.468h3.5zm0 .938h-3.03V12.5h4.437V2.344c0-.777-.63-1.406-1.407-1.406zm2.344 3.467v6h1.255v-6h-1.255z" id="cu"/><path d="M6.21 0c.237 0 .433.176.464.405L6.68.47v2.265l-.005.063a.469.469 0 0 1-.929 0l-.004-.063V.469l.004-.064A.469.469 0 0 1 6.21 0zM.469 0c.237 0 .433.176.464.405L.937.47v2.265a.469.469 0 0 1-.933.063L0 2.734V.469C0 .209.21 0 .469 0z" id="cw"/><path d="M30 0c16.569 0 30 13.431 30 30 0 16.569-13.431 30-30 30C13.431 60 0 46.569 0 30 0 13.431 13.431 0 30 0z" id="cy"/><path d="M35.724 0s5.13 2.784 13.527 5.411c8.382 2.612 11.682 12.98 10.525 22.848 0 0-7.976 7.303-28.838 7.71V36c-.312 0-.625-.005-.938-.015-.313.01-.626.015-.938.015v-.031C8.2 35.562.224 28.259.224 28.259-.933 18.391 2.367 8.023 10.749 5.411 19.147 2.784 24.276 0 24.276 0L30 .532 35.724 0z" id="cA"/><path d="m7.772 0 7.053.704-.004.024L14.81.8c-.134.838-1.026 6.976.72 11.79 0 0-2.347 2.94-7.758 2.94C2.362 15.53 0 12.59 0 12.59 1.76 7.775.855 1.637.72.8L.708.728A3.816 3.816 0 0 0 .704.704L7.772 0z" id="cC"/><path d="m7.069 0 7.053.704s-.579 3.3-.266 7.068c-.323.324-.652.62-.985.892-1.44 1.188-4.145 1.454-4.864 1.454-.704 0-3.425-.266-4.864-1.454C2.127 7.835 1.19 6.756.375 5.552a30.83 30.83 0 0 0-.37-4.82L0 .703 7.069 0z" id="cE"/><path d="M11.823 0c7.147 0 11.823 5.786 11.823 12.933 0 5.364-2.628 13.09-6.96 16.624-1.438 1.173-4.144 1.439-4.863 1.439-.704 0-3.41-.266-4.864-1.439C2.627 26.023 0 18.297 0 12.933 0 5.786 4.676 0 11.823 0z" id="cG"/><path d="M8.288 0c4.583 0 8.305 1.845 8.305 4.144 0 2.283-3.722 4.144-8.305 4.144C3.706 8.288 0 6.428 0 4.144 0 1.845 3.706 0 8.288 0z" id="cI"/><path d="m5.384 0 1.36 3.534S.833 6.146 1.1 16.358c0 0-.034-.085-.09-.249l-.052-.159C.622 14.915-.176 11.988.035 8.132.301 3.284 5.384 0 5.384 0z" id="cK"/><path d="M1.376 0S6.443 3.284 6.71 8.132s-1.048 8.226-1.048 8.226C5.927 6.146 0 3.534 0 3.534L1.376 0z" id="cM"/><path d="M21.41 11.75S10.932 4.245.017 6.09c0 0-.013-.076-.016-.212L0 5.765c.012-.823.38-3.047 3.77-4.711 6.318-3.081 16.108.625 17.64 10.697z" id="cO"/><path d="M5.29.259h-.5s.89.107 1.773.264l.24.044c1.315.248 2.432.595.332.849-3.416.414-6.356 8.81-6.666 9.725l-.027.08s-1.47-6.959.954-9.54C3.836-.898 5.29.26 5.29.26z" id="cQ"/><path d="M6.902 1.682c2.424 2.58.954 9.54.954 9.54l-.027-.081c-.31-.915-3.25-9.311-6.666-9.725-2.092-.254-.975-.601.336-.85l.24-.043C2.62.366 3.509.259 3.509.259h-.5S4.462-.9 6.901 1.682z" id="cS"/><path d="M2.504.008c1.657.188 4.16 3.159 3.784 6.459-.36 3.284-3.456 5.645-5.098 5.473-1.642-.188-1.22-2.846-.86-6.13C.69 2.51.862-.164 2.504.008z" id="cU"/><path id="dm" d="M0 0h24v24H0z"/><radialGradient cx="119.618%" cy="22.749%" fx="119.618%" fy="22.749%" r="20.897%" gradientTransform="matrix(0 .41797 -1 0 1.424 -.272)" id="U"><stop stop-color="#FFF" offset="0%"/><stop stop-color="#00FDFF" offset="100%"/></radialGradient><radialGradient cx="305.379%" cy="22.687%" fx="305.379%" fy="22.687%" r="184.405%" gradientTransform="scale(1 .41359) rotate(6.507 .224 .388)" id="R"><stop stop-color="#FFF" offset="0%"/><stop stop-color="#00FDFF" offset="100%"/></radialGradient><radialGradient cx="61.702%" cy="22.751%" fx="61.702%" fy="22.751%" r="20.897%" gradientTransform="matrix(0 .41812 -1 0 .845 -.03)" id="O"><stop stop-color="#FFF" offset="0%"/><stop stop-color="#00FDFF" offset="100%"/></radialGradient><radialGradient cx="117.163%" cy="22.788%" fx="117.163%" fy="22.788%" r="20.897%" gradientTransform="matrix(0 .42232 -1 0 1.4 -.267)" id="L"><stop stop-color="#FFF" offset="0%"/><stop stop-color="#00FDFF" offset="100%"/></radialGradient><radialGradient cx="119.618%" cy="22.749%" fx="119.618%" fy="22.749%" r="20.897%" gradientTransform="matrix(0 .41797 -1 0 1.424 -.272)" id="q"><stop stop-color="#FFF" offset="0%"/><stop stop-color="#ABFF00" offset="100%"/></radialGradient><radialGradient cx="305.379%" cy="22.687%" fx="305.379%" fy="22.687%" r="184.405%" gradientTransform="scale(1 .41359) rotate(6.507 .224 .388)" id="n"><stop stop-color="#FFF" offset="0%"/><stop stop-color="#ABFF00" offset="100%"/></radialGradient><radialGradient cx="61.702%" cy="22.751%" fx="61.702%" fy="22.751%" r="20.897%" gradientTransform="matrix(0 .41812 -1 0 .845 -.03)" id="k"><stop stop-color="#FFF" offset="0%"/><stop stop-color="#ABFF00" offset="100%"/></radialGradient><radialGradient cx="117.163%" cy="22.811%" fx="117.163%" fy="22.811%" r="20.897%" gradientTransform="matrix(0 .42232 -1 0 1.4 -.267)" id="h"><stop stop-color="#FFF" offset="0%"/><stop stop-color="#ABFF00" offset="100%"/></radialGradient></defs><g fill="none" fill-rule="evenodd"><mask id="b" fill="#fff"><use xlink:href="#a"/></mask><g mask="url(#b)"><mask id="d" fill="#fff"><use xlink:href="#c"/></mask><g mask="url(#d)"><g transform="translate(0 459.09)"><mask id="f" fill="#fff"><use xlink:href="#e"/></mask><path fill="#58C336" fill-rule="nonzero" mask="url(#f)" d="M0 0h13.99v13.74H0z"/></g><g transform="translate(4.077 459.09)"><mask id="i" fill="#fff"><use xlink:href="#g"/></mask><path fill="url(#h)" fill-rule="nonzero" opacity="15" mask="url(#i)" d="M0 0h5.836v13.818H0z"/></g><g transform="rotate(-44 573.05 231.41)"><mask id="l" fill="#fff"><use xlink:href="#j"/></mask><path fill="url(#k)" fill-rule="nonzero" opacity="15" mask="url(#l)" d="M0 0h5.807v13.888H0z"/></g><g transform="rotate(-90 234.45 234.437)"><mask id="o" fill="#fff"><use xlink:href="#m"/></mask><path fill="url(#n)" fill-rule="nonzero" opacity="15" mask="url(#o)" d="M0 0h5.775v13.963H0z"/></g><g transform="rotate(-135 100.022 235.625)"><mask id="r" fill="#fff"><use xlink:href="#p"/></mask><path fill="url(#q)" fill-rule="nonzero" opacity="15" mask="url(#r)" d="M0 0h5.806v13.89H0z"/></g><g transform="translate(3.434 463.267)"><mask id="t" fill="#fff"><use xlink:href="#s"/></mask><path fill="#FFF" fill-rule="nonzero" mask="url(#t)" d="M0 0h7.186v5.547H0z"/></g><g transform="translate(1 483)"><mask id="v" fill="#fff"><use xlink:href="#u"/></mask><path fill="#FFF" fill-rule="nonzero" mask="url(#v)" d="M0 0h10v10H0z"/></g><g transform="translate(.5 503.5)"><mask id="x" fill="#fff"><use xlink:href="#w"/></mask><path fill="#E0F2F0" fill-rule="nonzero" mask="url(#x)" d="M0 0h15v15H0z"/></g><path d="M8 518.5a7.5 7.5 0 1 1 0-15 7.5 7.5 0 0 1 0 15z" stroke="#009681"/><path d="m5 511.08 2.124 2.125L11.33 509" stroke-linejoin="round" stroke="#009681"/><g transform="translate(0 529)"><mask id="z" fill="#fff"><use xlink:href="#y"/></mask><path fill="#606060" fill-rule="nonzero" mask="url(#z)" d="M0 0h11.19v14.002H0z"/></g><g transform="translate(0 576)"><mask id="B" fill="#fff"><use xlink:href="#A"/></mask><path fill="#FFC72B" fill-rule="nonzero" mask="url(#B)" d="M0 0h15v15H0z"/></g><g transform="translate(1 601)"><mask id="D" fill="#fff"><use xlink:href="#C"/></mask><path fill="#FFF" fill-rule="nonzero" mask="url(#D)" d="M0 0h16v24H0z"/></g><path d="M14.6 601a2.4 2.4 0 0 1 2.4 2.4v19.2a2.4 2.4 0 0 1-2.4 2.4H3.4a2.4 2.4 0 0 1-2.4-2.4v-19.2a2.4 2.4 0 0 1 2.4-2.4h11.2z" stroke="#303030"/><path d="M11.74 611.8a.58.58 0 0 1-.007.985l-3.522 2.224a.58.58 0 0 1-.889-.49H7.32v-4.457c0-.481.55-.75.93-.466l3.49 2.204z" stroke="#D8222A"/><path d="M7 622.5h4z" fill="#FFF" fill-rule="nonzero"/><path stroke="#303030" d="M7 622.5h4"/><g transform="translate(0 552)"><mask id="F" fill="#fff"><use xlink:href="#E"/></mask><path fill="#FFC72B" fill-rule="nonzero" mask="url(#F)" d="M0 0h14v14H0z"/></g><g transform="translate(3.238 555.37)"><mask id="H" fill="#fff"><use xlink:href="#G"/></mask><path fill="#FFFCF2" fill-rule="nonzero" mask="url(#H)" d="M0 0h7.062v6.743H0z"/></g><g transform="translate(0 645.09)"><mask id="J" fill="#fff"><use xlink:href="#I"/></mask><path fill="#00A7C0" fill-rule="nonzero" mask="url(#J)" d="M0 0h13.99v13.74H0z"/></g><g transform="translate(4.07 645.09)"><mask id="M" fill="#fff"><use xlink:href="#K"/></mask><path fill="url(#L)" fill-rule="nonzero" opacity="15" mask="url(#M)" d="M0 0h5.836v13.818H0z"/></g><g transform="rotate(-44 803.233 324.41)"><mask id="P" fill="#fff"><use xlink:href="#N"/></mask><path fill="url(#O)" fill-rule="nonzero" opacity="15" mask="url(#P)" d="M0 0h5.807v13.888H0z"/></g><g transform="rotate(-90 327.45 327.437)"><mask id="S" fill="#fff"><use xlink:href="#Q"/></mask><path fill="url(#R)" fill-rule="nonzero" opacity="15" mask="url(#S)" d="M0 0h5.775v13.963H0z"/></g><g transform="rotate(-135 138.544 328.625)"><mask id="V" fill="#fff"><use xlink:href="#T"/></mask><path fill="url(#U)" fill-rule="nonzero" opacity="15" mask="url(#V)" d="M0 0h5.806v13.89H0z"/></g><g transform="translate(4.324 648.394)"><mask id="X" fill="#fff"><use xlink:href="#W"/></mask><path fill="#FFF" fill-rule="nonzero" mask="url(#X)" d="M0 0h5.278v7.23H0z"/></g><g transform="translate(.7 705)"><mask id="Z" fill="#fff"><use xlink:href="#Y"/></mask><path fill="#FFF" fill-rule="nonzero" mask="url(#Z)" d="M0 0h24v20H0z"/></g><path d="M23.1 705a1.6 1.6 0 0 1 1.6 1.6v16.8a1.6 1.6 0 0 1-1.6 1.6H2.3a1.6 1.6 0 0 1-1.6-1.6v-16.8a1.6 1.6 0 0 1 1.6-1.6h20.8z" stroke="#303030"/><g transform="translate(3.7 708)"><mask id="ab" fill="#fff"><use xlink:href="#aa"/></mask><path fill="#FFF" fill-rule="nonzero" mask="url(#ab)" d="M0 0h18v14H0z"/></g><path stroke="#303030" d="M21.7 708v14h-18v-14z"/><path d="M15.9 714.2a1.6 1.6 0 1 1 0-3.2 1.6 1.6 0 0 1 0 3.2z" stroke="#D8222A"/><g transform="translate(9.11 714.9)"><mask id="ad" fill="#fff"><use xlink:href="#ac"/></mask><path fill="#FFF" fill-rule="nonzero" mask="url(#ad)" d="M-5.385 0h17.8v7h-17.8z"/></g><path stroke="#303030" d="m3.725 719.117 5.384-4.217 5.385 4.217-3.567 2.783 6.283-4.91 4.315 3.38"/><path stroke="#303030" stroke-linecap="round" d="M18.57 675.902V695h6.471H.7h2.705v-26z"/><path d="M9.205 693.502v-5.2h4v5.2" stroke="#D8222A"/><path d="M22.556 694.903v-4.351M24.305 688.652c0-.966-.784-3.25-1.75-3.25-.967 0-1.75 2.284-1.75 3.25a1.75 1.75 0 0 0 3.5 0zM6.332 678.866h8.873M6.332 681.866h8.873M6.332 684.866h8.873" stroke-linecap="round" stroke="#303030"/><g transform="translate(0 738)"><mask id="af" fill="#fff"><use xlink:href="#ae"/></mask><path fill="#009681" fill-rule="nonzero" mask="url(#af)" d="M0 0h13v14H0z"/></g><g transform="translate(3 740.475)"><mask id="ah" fill="#fff"><use xlink:href="#ag"/></mask><path fill="#FFFCF2" fill-rule="nonzero" mask="url(#ah)" d="M0 0h7.062v6.676H0z"/></g><g transform="translate(0 814)"><mask id="aj" fill="#fff"><use xlink:href="#ai"/></mask><path fill="#29303B" fill-rule="nonzero" mask="url(#aj)" d="M0 0h16v16H0z"/></g><g transform="translate(3.59 818.079)"><mask id="al" fill="#fff"><use xlink:href="#ak"/></mask><path fill="#FC3" fill-rule="nonzero" mask="url(#al)" d="M0 0h8.82v7.921H0z"/></g><g transform="translate(0 840)"><mask id="an" fill="#fff"><use xlink:href="#am"/></mask><path fill="#303030" fill-rule="nonzero" mask="url(#an)" d="M0 0h20v20H0z"/></g><g transform="translate(6.087 844)"><mask id="ap" fill="#fff"><use xlink:href="#ao"/></mask><path fill="#EB860C" fill-rule="nonzero" mask="url(#ap)" d="M0 0h7.826v6.05H0z"/></g><g transform="matrix(-1 0 0 1 16 846.2)"><mask id="ar" fill="#fff"><use xlink:href="#aq"/></mask><path fill="#FFCE25" fill-rule="nonzero" mask="url(#ar)" d="M0 0h10.957v6.6H0z"/></g><g transform="translate(4 846.2)"><mask id="at" fill="#fff"><use xlink:href="#as"/></mask><path fill="#FFCE25" fill-rule="nonzero" mask="url(#at)" d="M0 0h10.957v6.6H0z"/></g><path d="M6.087 854.725h7.826z" fill="#D8D8D8" fill-rule="nonzero"/><path stroke="#FFCE25" stroke-width=".816" d="M6.087 854.725h7.826"/><g stroke="#D8222A" stroke-width="1.875"><path d="M2 878h12l-5-5 5 5-5 5"/></g><g><path d="M17.5 905a8.5 8.5 0 1 1-17 0 8.5 8.5 0 0 1 17 0z" stroke="#303030"/><g transform="translate(5.8 900.6)"><mask id="av" fill="#fff"><use xlink:href="#au"/></mask><path fill="#303030" fill-rule="nonzero" mask="url(#av)" d="M0 0h6.149v9.282H0z"/></g></g><g><g transform="translate(4.717 948)"><mask id="ax" fill="#fff"><use xlink:href="#aw"/></mask><path fill="#EB860C" fill-rule="nonzero" mask="url(#ax)" d="M0 0h17.078v12.682H0z"/></g><g transform="matrix(-1 0 0 1 26.053 952.373)"><mask id="az" fill="#fff"><use xlink:href="#ay"/></mask><path fill="#FFCE25" fill-rule="nonzero" mask="url(#az)" d="M0 0h23.557v14.122H0z"/></g><g transform="translate(0 952.373)"><mask id="aB" fill="#fff"><use xlink:href="#aA"/></mask><path fill="#FFCE25" fill-rule="nonzero" mask="url(#aB)" d="M0 0h23.557v14.122H0z"/></g><path d="M4.717 970.55h16.54z" fill="#D8D8D8" fill-rule="nonzero"/><path stroke="#FFCE25" stroke-width="2.24" d="M4.717 970.55h16.54"/></g><g><g transform="translate(0 982)"><mask id="aD" fill="#fff"><use xlink:href="#aC"/></mask><path fill="#303030" fill-rule="nonzero" mask="url(#aD)" d="M0 0h20.149v12.452H0z"/></g><g transform="translate(4.056 984.423)"><mask id="aF" fill="#fff"><use xlink:href="#aE"/></mask><path fill="#303030" fill-rule="nonzero" mask="url(#aF)" d="M0 .052h3.382v.896H0z"/></g><g transform="translate(15.935 984.423)"><mask id="aH" fill="#fff"><use xlink:href="#aG"/></mask><path fill="#303030" fill-rule="nonzero" mask="url(#aH)" d="M.01.052h.98v.896H.01z"/></g><g transform="translate(13.872 984.423)"><mask id="aJ" fill="#fff"><use xlink:href="#aI"/></mask><path fill="#303030" fill-rule="nonzero" mask="url(#aJ)" d="M.01.052h.98v.896H.01z"/></g><g transform="translate(11.902 986.46)"><mask id="aL" fill="#fff"><use xlink:href="#aK"/></mask><path fill="#D8222A" fill-rule="nonzero" mask="url(#aL)" d="M0 0h5.022v5.758H0z"/></g><g transform="translate(11.891 984.423)"><mask id="aN" fill="#fff"><use xlink:href="#aM"/></mask><path fill="#303030" fill-rule="nonzero" mask="url(#aN)" d="M.01.052h.98v.896H.01z"/></g></g><g><g transform="translate(.4 1005)"><mask id="aP" fill="#fff"><use xlink:href="#aO"/></mask><path fill="#303030" fill-rule="nonzero" mask="url(#aP)" d="M0 0h11.096v11.096H0z"/></g><path d="M11.034 1010.548a5.092 5.092 0 0 1-5.086 5.086 5.092 5.092 0 0 1-5.085-5.086 5.092 5.092 0 0 1 5.085-5.086 5.092 5.092 0 0 1 5.086 5.086zm-10.634 0a5.548 5.548 0 1 0 11.097 0 5.548 5.548 0 0 0-11.097 0z" stroke="#303030" stroke-width=".325"/><path d="m9.509 1014.605 5.147 4.153" stroke-linecap="round" stroke="#303030" stroke-width=".86"/></g><g><g transform="translate(0 1029)"><mask id="aR" fill="#fff"><use xlink:href="#aQ"/></mask><path fill="#303030" fill-rule="nonzero" mask="url(#aR)" d="M0 0h12.88v16.625H0z"/></g><g transform="translate(3.412 1032.413)"><mask id="aT" fill="#fff"><use xlink:href="#aS"/></mask><path fill="#303030" fill-rule="nonzero" mask="url(#aT)" d="M0 0h6.055v6.055H0z"/></g></g><g><g transform="translate(0 1056)"><mask id="aV" fill="#fff"><use xlink:href="#aU"/></mask><path fill="#303030" fill-rule="nonzero" mask="url(#aV)" d="M0 0h14v14H0z"/></g><g transform="translate(3.5 1059.5)"><mask id="aX" fill="#fff"><use xlink:href="#aW"/></mask><path fill="#303030" fill-rule="nonzero" mask="url(#aX)" d="M0 0h7v7H0z"/></g></g><g><g transform="translate(0 1115)"><mask id="aZ" fill="#fff"><use xlink:href="#aY"/></mask><path fill="#AB7C00" fill-rule="nonzero" mask="url(#aZ)" d="M0 0h19.127v21.998H0z"/></g><g transform="translate(.75 1117.07)"><mask id="bb" fill="#fff"><use xlink:href="#ba"/></mask><path fill="#AB7C00" fill-rule="nonzero" mask="url(#bb)" d="M0 0h17.625v10.657H0z"/></g></g><g stroke="#303030"><path d="M17.125 1149v16h-14v-16h14zM10.125 1149.442V1165M11.925 1155.557v1M8.425 1155.557v1M1.436 1165h17.46M3.436 1160h13.46"/></g><g><g transform="translate(0 1177)"><mask id="bd" fill="#fff"><use xlink:href="#bc"/></mask><path fill="#606060" fill-rule="nonzero" mask="url(#bd)" d="M0 0h23.548v10.018H0z"/></g><g transform="translate(1.453 1184.918)"><mask id="bf" fill="#fff"><use xlink:href="#be"/></mask><path fill="#606060" fill-rule="nonzero" mask="url(#bf)" d="M0 0h20.571v18H0z"/></g><path d="m20.763 1188.758.032.223.114.975c.369.003.713.183.92.481.209.3.253.68.12 1.016a1.112 1.112 0 0 1-.655.634l-.131.039.052.452a2.625 2.625 0 0 1-.735 1.621 1.869 1.869 0 0 0-.178.182c.104.022.211.03.318.024a.228.228 0 0 1 .217.128.22.22 0 0 1-.038.246 2.508 2.508 0 0 1-.667.503 3.09 3.09 0 0 1 1.387 2.365l.007.205v4.844c0 .102-.071.189-.167.215l-.06.007H12.46a.23.23 0 0 1-.16-.065.222.222 0 0 1-.06-.1l-.007-.057v-4.844c0-1.03.523-1.993 1.394-2.57-.25-.13-.475-.3-.667-.503a.22.22 0 0 1-.039-.246.227.227 0 0 1 .164-.124l.054-.004c.11.006.218-.002.322-.024a1.887 1.887 0 0 0-.178-.182 2.628 2.628 0 0 1-.712-1.42l-.024-.201.052-.452a1.116 1.116 0 0 1-.786-.673 1.081 1.081 0 0 1 .12-1.016c.181-.261.467-.431.783-.472l.137-.009.114-.975a3.832 3.832 0 0 1 1.229-2.384c.629-.574 1.43-.93 2.282-1.015l.233-.017h-.002a3.992 3.992 0 0 1 2.73.92 3.84 3.84 0 0 1 1.323 2.273zm-12.544-3.088c.414.491.579 1.142.448 1.769a4.06 4.06 0 0 1 1.98 2.906l.028.229.07.762c.347.044.655.244.834.543.179.298.21.661.083.985a1.135 1.135 0 0 1-.732.672 3.354 3.354 0 0 1-1.12 2.47l-.156.13-.468.37c.6.197 1.12.575 1.49 1.081.328.45.522.982.56 1.533l.008.208v3.365c0 .104-.07.191-.167.217l-.06.008H2.175a.227.227 0 0 1-.219-.165l-.008-.06v-3.365c0-.625.199-1.234.568-1.74.329-.451.777-.8 1.293-1.01l.197-.071-.468-.37a3.356 3.356 0 0 1-1.276-2.601 1.134 1.134 0 0 1-.732-.672 1.12 1.12 0 0 1 .083-.985c.157-.261.412-.447.706-.519l.129-.024.069-.763a4.057 4.057 0 0 1 2.008-3.134 2.083 2.083 0 0 1 .414-1.727 2.12 2.12 0 0 1 1.416-.78l.186-.013h.002a2.122 2.122 0 0 1 1.676.751zm5.514 9.864a2.826 2.826 0 0 0-1.22 2.133l-.005.185v4.804h1.585v-4.623a.133.133 0 0 1 .134-.13c.058 0 .108.037.127.089l.007.04v4.624h2.39v-4.634a.224.224 0 0 1-.064-.07 6.124 6.124 0 0 0-.869-1.163.99.99 0 0 1-.15.49.229.229 0 0 1-.22.104l-.064-.017a2.558 2.558 0 0 1-1.483-1.678l.004-.132-.005-.13-.167.108zm6.13-.109-.006.131.005.132a2.557 2.557 0 0 1-1.314 1.601l-.165.077a.234.234 0 0 1-.289-.088.989.989 0 0 1-.15-.489 6.126 6.126 0 0 0-.868 1.162l-.028.04-.035.031v4.634h2.39v-4.624c0-.072.06-.131.134-.131.06 0 .11.037.128.09l.007.041v4.624h1.585v-4.805c0-.991-.53-1.911-1.395-2.426zM8.3 1197.207a1.85 1.85 0 0 1-.125 1.784 1.884 1.884 0 0 1-1.583.858c-.641 0-1.238-.323-1.583-.858a1.85 1.85 0 0 1-.19-1.625l.064-.16-.626-.496a2.73 2.73 0 0 0-1.474.963 2.691 2.691 0 0 0-.564 1.456l-.007.2v3.324H3.74v-3.113a.134.134 0 0 1 .261-.042l.007.042v3.113h5.168v-3.113a.134.134 0 0 1 .258-.04l.01.04v3.113h1.528v-3.325c0-.6-.201-1.182-.571-1.655a2.73 2.73 0 0 0-1.475-.963l-.626.497zm-1.709.631c-.466 0-.922-.124-1.32-.358l-.168-.106-.055.15c-.138.454-.066.95.203 1.349.3.444.802.71 1.34.71.539 0 1.042-.266 1.34-.71a1.586 1.586 0 0 0 .15-1.5 2.615 2.615 0 0 1-1.49.465zm10.175-3.19c-.283.344-.655.61-1.08.765a2.559 2.559 0 0 1-1.517.076c.003.056.003.113 0 .17a2.298 2.298 0 0 0 1.283 1.452.73.73 0 0 0 .092-.41.222.222 0 0 1 .135-.218.23.23 0 0 1 .256.05 6.4 6.4 0 0 1 .945 1.229c.263-.446.58-.859.945-1.23a.23.23 0 0 1 .256-.05.222.222 0 0 1 .135.22.73.73 0 0 0 .092.41 2.298 2.298 0 0 0 1.282-1.454 2.168 2.168 0 0 1 0-.17 2.56 2.56 0 0 1-1.515-.075 2.502 2.502 0 0 1-1.194-.918l-.115.152zm-7.27-1.396a1.213 1.213 0 0 1-.605.995c-.358.208-.8.222-1.17.037a1.216 1.216 0 0 1-.645-.82l-.022-.135H6.13a1.214 1.214 0 0 1-.668.95c-.37.185-.81.17-1.167-.037a1.214 1.214 0 0 1-.592-.855l-.014-.135-1.054-1.055-.094 1.03a3.086 3.086 0 0 0 1.003 2.567l.159.135 1.435 1.137a2.345 2.345 0 0 0 2.751.115l.16-.115 1.435-1.137a3.089 3.089 0 0 0 1.174-2.496l-.012-.207-.096-1.03-1.053 1.056zm-3.33 2.634c.2.213.47.332.75.332.281 0 .55-.119.75-.332a.12.12 0 0 1 .178.001.144.144 0 0 1 0 .193c-.248.263-.58.41-.928.41-.346 0-.68-.147-.926-.41a.144.144 0 0 1-.002-.193.12.12 0 0 1 .178-.001zm10.867-2.459a.23.23 0 0 1-.305 0c-.226-.2-.512-.32-.813-.347l-.151-.006-.142.01c-.422.05-.802.285-1.028.643-.105.274-.29.51-.535.678-.244.168-.534.26-.832.265a2.27 2.27 0 0 0 3.462-.368.228.228 0 0 1 .191-.102c.077 0 .15.038.191.102a2.27 2.27 0 0 0 3.463.368 1.503 1.503 0 0 1-.832-.265 1.455 1.455 0 0 1-.535-.678 1.421 1.421 0 0 0-2.134-.3zm-.312-7.6a3.71 3.71 0 0 0-2.344.962c-.58.53-.97 1.23-1.11 1.992l-.034.23-.419 3.571c.048.535.278 1.04.654 1.43.095.085.183.179.26.28.292-.137.516-.38.623-.679.253-.416.68-.702 1.168-.78.489-.078.987.06 1.362.376a1.697 1.697 0 0 1 1.36-.376c.489.078.917.364 1.17.78.106.298.33.542.621.678.078-.1.166-.194.26-.28.33-.341.547-.77.628-1.23l.027-.199-.419-3.57a3.574 3.574 0 0 0-1.263-2.327 3.713 3.713 0 0 0-2.082-.848l-.23-.012-.232.003zm-11.957 6.427a.959.959 0 0 0-.539.277.943.943 0 0 0-.27.665c-.005.254.093.5.273.683a.961.961 0 0 0 1.367 0 .945.945 0 0 0 .273-.683.944.944 0 0 0-.287-.682.961.961 0 0 0-.693-.27l-.124.01zm3.36 0a.959.959 0 0 0-.539.277.944.944 0 0 0-.27.665c-.005.254.094.5.274.682a.96.96 0 0 0 1.365 0 .944.944 0 0 0 .274-.682.944.944 0 0 0-.287-.682.961.961 0 0 0-.693-.27l-.124.01zm-6.298-.226a.856.856 0 0 0 .34 1.185l.097.045h.005v-.055l.145-1.593a.87.87 0 0 0-.587.418zm9.086 1.174v.055a.866.866 0 0 0 .501-.515.856.856 0 0 0-.063-.712.87.87 0 0 0-.584-.42l.146 1.592zm-3.31-3.864a4.695 4.695 0 0 1-2.216 1.38 4.73 4.73 0 0 1-2.33.062l-.286-.074-.104 1.144 1.057 1.057c.092-.372.356-.679.712-.828.356-.15.762-.123 1.096.07.292.17.498.45.574.773l.024.14h.926c.042-.38.264-.72.598-.914.334-.194.74-.22 1.097-.07.312.13.553.382.67.693l.042.136 1.057-1.057-.071-.767a3.028 3.028 0 0 1-1.638-.463 2.992 2.992 0 0 1-1.122-1.27.052.052 0 0 0-.03-.026l-.02-.002h-.005v-.001a.051.051 0 0 0-.031.017zm8.45 1.555a.63.63 0 0 1 .186.454.63.63 0 0 1-.185.454.648.648 0 0 1-.916 0 .63.63 0 0 1-.185-.454.63.63 0 0 1 .185-.454.647.647 0 0 1 .916 0zm3.212 0a.64.64 0 0 1 0 .909.643.643 0 1 1 0-.91zm-7.118-.299a.822.822 0 0 0-.088.754c.082.215.25.386.461.476l.11.037.192-1.641a.86.86 0 0 0-.675.374zm8.986 1.268a.848.848 0 0 0 .57-.514.823.823 0 0 0-.088-.754.859.859 0 0 0-.674-.374l.192 1.642zm-14.617-4.714a3.847 3.847 0 0 0-2.472.963 3.784 3.784 0 0 0-1.245 2.326c.81.247 1.674.258 2.49.032a4.427 4.427 0 0 0 2.114-1.307.322.322 0 0 1 .53.078c.22.472.571.87 1.013 1.15.386.245.827.39 1.282.422l.196.006-.02-.22a3.782 3.782 0 0 0-1.259-2.484 3.848 3.848 0 0 0-2.629-.966zm-.155-1.949c-.464.059-.89.29-1.191.65a1.818 1.818 0 0 0-.4 1.457 4.128 4.128 0 0 1 3.645 0 1.82 1.82 0 0 0-.435-1.498 1.854 1.854 0 0 0-1.443-.622l-.176.013z" stroke="#606060" stroke-width=".4"/></g><g><g transform="translate(0 1096.688)"><mask id="bh" fill="#fff"><use xlink:href="#bg"/></mask><path fill="#AB7C00" fill-rule="nonzero" mask="url(#bh)" d="M0 0h22.126v4.125H0z"/></g><path d="M11.063 1085.25c-5.384 0-9.75 4.365-9.75 9.75h19.5c0-5.385-4.365-9.75-9.75-9.75z" stroke-linejoin="round" stroke="#AB7C00" stroke-width="1.125"/><g transform="translate(4.499 1087.5)"><mask id="bj" fill="#fff"><use xlink:href="#bi"/></mask><path fill="#AB7C00" fill-rule="nonzero" mask="url(#bj)" d="M0 0h6.736v5.184H0z"/></g><path d="M11.063 1085.25a1.125 1.125 0 1 1 0-2.25 1.125 1.125 0 0 1 0 2.25z" stroke-linejoin="round" stroke="#AB7C00" stroke-width="1.125"/></g><g><g transform="translate(2.896 924)"><mask id="bl" fill="#fff"><use xlink:href="#bk"/></mask><path fill="#EB860C" fill-rule="nonzero" mask="url(#bl)" d="M0 0h10.488v7.603H0z"/></g><g transform="matrix(-1 0 0 1 16 926.622)"><mask id="bn" fill="#fff"><use xlink:href="#bm"/></mask><path fill="#FFCE25" fill-rule="nonzero" mask="url(#bn)" d="M0 0h14.467v8.467H0z"/></g><g transform="translate(0 926.622)"><mask id="bp" fill="#fff"><use xlink:href="#bo"/></mask><path fill="#FFCE25" fill-rule="nonzero" mask="url(#bp)" d="M0 0h14.467v8.467H0z"/></g><path d="M2.896 937.52h10.158z" fill="#FFCE25" fill-rule="nonzero"/><path stroke="#FFCE25" stroke-width="1.223" d="M2.896 937.52h10.157"/></g><g><g transform="translate(17.605 774.132)"><mask id="br" fill="#fff"><use xlink:href="#bq"/></mask><path fill="#FFF" fill-rule="nonzero" mask="url(#br)" d="M0 0h6.141v6.141H0z"/></g><g transform="translate(9.048 774.132)"><mask id="bt" fill="#fff"><use xlink:href="#bs"/></mask><path fill="#FFF" fill-rule="nonzero" mask="url(#bt)" d="M0 0h6.141v6.141H0z"/></g><g transform="translate(9.048 782.282)"><mask id="bv" fill="#fff"><use xlink:href="#bu"/></mask><path fill="#FFF" fill-rule="nonzero" mask="url(#bv)" d="M0 0h6.141v6.14H0z"/></g><g transform="translate(29.048 792.432)"><mask id="bx" fill="#fff"><use xlink:href="#bw"/></mask><path fill="#FFF" fill-rule="nonzero" mask="url(#bx)" d="M0 0h6.141v11.496H0z"/></g><g transform="translate(0 762)"><mask id="bz" fill="#fff"><use xlink:href="#by"/></mask><path fill="#FFF" fill-rule="nonzero" mask="url(#bz)" d="M0 0h48v42H0z"/></g><g transform="translate(9.048 791.532)"><mask id="bB" fill="#fff"><use xlink:href="#bA"/></mask><path fill="#FFF" fill-rule="nonzero" mask="url(#bB)" d="M0 0h6.141v6.141H0z"/></g></g><g><mask id="bD" fill="#fff"><use xlink:href="#bC"/></mask><path fill="#303030" fill-rule="nonzero" mask="url(#bD)" d="M0 0h12.5v11.5H0z"/></g><g transform="translate(0 40)"><mask id="bF" fill="#fff"><use xlink:href="#bE"/></mask><path fill="#D8222A" fill-rule="nonzero" mask="url(#bF)" d="M0 0h12.5v11.5H0z"/></g><g transform="translate(0 20)"><mask id="bH" fill="#fff"><use xlink:href="#bG"/></mask><path fill="#FFF" fill-rule="nonzero" mask="url(#bH)" d="M0 0h12.5v11.5H0z"/></g><g transform="translate(0 60)"><mask id="bJ" fill="#fff"><use xlink:href="#bI"/></mask><path fill="#009681" fill-rule="nonzero" mask="url(#bJ)" d="M0 0h12.5v11.5H0z"/></g><g stroke="#606060"><path d="M18 89a1 1 0 0 1 1 1v4a1 1 0 0 1-1 1H2a1 1 0 0 1-1-1v-4a1 1 0 0 1 1-1h16zM15 81a2 2 0 0 1 2 2v6H3v-6a2 2 0 0 1 2-2h10z"/><path d="M8 86a1 1 0 0 1 1 1v2H5v-2a1 1 0 0 1 1-1h2zM14 86a1 1 0 0 1 1 1v2h-4v-2a1 1 0 0 1 1-1h2zM3.146 95v1M17.146 95v1"/></g><g stroke="#606060"><path d="m12.739 111.892.707.707-1.414 4.243-4.243-4.243 4.243-1.414.707.707.985-.78a2 2 0 0 1 3.242 1.567v6.842M19 120l-.67 4.467A1.8 1.8 0 0 1 16.55 126H3.45a1.8 1.8 0 0 1-1.78-1.533L1 120h18zM3.034 128l.932-2M16.966 128l-.932-2M5.879 115.652l.745-.745-.745.745zm2.828 0-.67.669.67-.67zm.745 2.083-.745.745"/></g><g stroke="#606060"><path stroke-linecap="round" stroke-linejoin="round" d="M1 148v-1h18v1"/><path d="M16.737 147v7.555"/><path d="M2 154.2h16" stroke-linecap="round" stroke-linejoin="round"/><path d="M12.237 147v7.555M7.737 147v7.555M3.237 147v7.555"/><g><path d="M5 145v-6a1 1 0 0 1 1-1h8a1 1 0 0 1 1 1v6M10 138v7"/></g></g><g stroke="#606060"><path d="M10.822 211H2v-8.797h5.278v4.86-8.711 3.85H2V195h9.614v4.758h3.737-3.737V195H18v11.126h-6.386H18V211h-2.358"/></g><g stroke="#606060"><path d="M13.52 168c.488 0 .94.253 1.198.668l3.016 4.88c.214.346.327.745.327 1.152v3.42a2.035 2.035 0 0 1-2.035 2.034H3.974a2.035 2.035 0 0 1-2.035-2.035v-3.42c0-.406.114-.805.328-1.152l3.016-4.879c.257-.415.71-.668 1.198-.668h7.038z"/><path d="M17.875 170.6h.175a.95.95 0 1 1 0 1.9H1.95a.95.95 0 0 1 0-1.9h.175M18.06 178.154v3.063c0 .433-.35.783-.782.783H15.87a.783.783 0 0 1-.783-.783v-1.02M1.94 178.154v3.063c0 .433.35.783.783.783H4.13c.433 0 .783-.35.783-.783v-1.02M12.582 178.554l1.252 1.6H6.321l1.252-1.6h5.01zM7.94 176.5h4M16.652 176.923h-2.505a2 2 0 0 1 2-2h.505M3.66 176.923h2.505a2 2 0 0 0-2-2h-.504"/></g><g stroke="#606060"><path d="M1.5 234v-13M18 234v-13M9.75 233.267v-12M13.875 233.267v-11M15.303 224.697A7.477 7.477 0 0 1 17.5 230v3.5h-16V230c0-2.071.84-3.946 2.197-5.303A7.477 7.477 0 0 1 9 222.5h1c2.071 0 3.946.84 5.303 2.197zM1.888 230H17M5.625 233.267v-11"/></g><g stroke="#606060"><path d="m3.146 258.476 2.016-5.8a1 1 0 0 1 .945-.673h3.077a1 1 0 0 1 .945.672l2.017 5.801M2 244l2.772 7.99h5.905v-2.077h-6.3M16.935 246.042V258.5h-2.009 4.046-2.037v-12.458h2.037-10.2 8.163z"/></g><g stroke="#606060"><path d="M6 271.5a1.5 1.5 0 1 1 0-3 1.5 1.5 0 0 1 0 3zM4.5 286v-5h-3l1.5-4v-1a3 3 0 1 1 6 0v1l1.5 4h-3v5M16 271.5a1.5 1.5 0 1 1 0-3 1.5 1.5 0 0 1 0 3zM14.5 286v-5l-1.5-1v-5a2 2 0 0 1 2-2h2a2 2 0 0 1 2 2v5l-1.5 1v5"/></g><g stroke="#606060"><path d="M10 311.5a6.5 6.5 0 1 1 0-13 6.5 6.5 0 0 1 0 13z"/><path d="M10 313.5a8.5 8.5 0 1 1 0-17 8.5 8.5 0 0 1 0 17z"/><path d="m10.707 305.707-3.536 2.121 2.122-3.535 3.535-2.122z" stroke-linecap="round" stroke-linejoin="round"/><g stroke-linecap="round" stroke-linejoin="round"><path d="M10 299v1M10 310v1M3.5 305h1M15.5 305h1"/></g></g><g stroke="#606060"><path d="M13.303 327.21c1.066.456 2.132.594 3.197.415v6.213a5.5 5.5 0 0 1-2.39 4.537L10 341.19l-4.11-2.816a5.5 5.5 0 0 1-2.39-4.537v-6.213c1.065.179 2.131.041 3.197-.416 1.099-.47 2.202-1.289 3.303-2.464 1.1 1.175 2.204 1.993 3.303 2.464z"/><path d="m7.004 334 2.474 1.819 3.838-5.381" stroke-linecap="round" stroke-linejoin="round"/></g><g stroke="#009681"><path d="M10.572 404.028A5.882 5.882 0 0 1 12.3 408.2l-11.8.3c0-1.93.66-3.404 1.728-4.472A5.882 5.882 0 0 1 6.4 402.3c1.63 0 3.104.66 4.172 1.728zm-2.263-7.737c.489.488.791 1.163.791 1.909s-.302 1.42-.79 1.91a2.692 2.692 0 0 1-1.91.79c-.746 0-1.42-.302-1.91-.79a2.692 2.692 0 0 1-.79-1.91c0-.746.302-1.42.79-1.91a2.692 2.692 0 0 1 1.91-.79c.746 0 1.42.302 1.91.79z"/></g><g transform="translate(0 352)"><mask id="bL" fill="#fff"><use xlink:href="#bK"/></mask><path fill="#606060" fill-rule="nonzero" mask="url(#bL)" d="M0 0h12v12H0z"/></g><g stroke="#009681"><path d="M15.329 379.196c-1.917 3.46-4.477 5.304-7.329 5.304-2.845 0-5.409-1.822-7.328-4.696C2.588 376.343 5.147 374.5 8 374.5c2.847 0 5.41 1.82 7.329 4.696zm-8.415-.78a1.523 1.523 0 0 0 0 2.167 1.538 1.538 0 0 0 2.172 0 1.523 1.523 0 0 0 0-2.166 1.538 1.538 0 0 0-2.172 0z"/></g><g><g transform="translate(0 418)"><mask id="bN" fill="#fff"><use xlink:href="#bM"/></mask><path fill="#303030" fill-rule="nonzero" mask="url(#bN)" d="M0 0h26v32H0z"/></g><g transform="translate(16.295 418)"><mask id="bP" fill="#fff"><use xlink:href="#bO"/></mask><path fill="#303030" fill-rule="nonzero" mask="url(#bP)" d="M0 0h9.605v10.691H0z"/></g><g transform="translate(7 428)"><mask id="bR" fill="#fff"><use xlink:href="#bQ"/></mask><path fill="#D8222A" fill-rule="nonzero" mask="url(#bR)" d="M0 0h11.824v12.167H0z"/></g><g transform="translate(5 442.5)"><mask id="bT" fill="#fff"><use xlink:href="#bS"/></mask><path fill="#D8222A" fill-rule="nonzero" mask="url(#bT)" d="M0 0h16v2H0z"/></g></g></g><g transform="translate(2.656 1227.13)"><mask id="bV" fill="#fff"><use xlink:href="#bU"/></mask><path fill="#606060" fill-rule="nonzero" mask="url(#bV)" d="M0 0h7.188v2.688H0z"/></g><g transform="translate(.661 1225.531)"><mask id="bX" fill="#fff"><use xlink:href="#bW"/></mask><path fill="#606060" fill-rule="nonzero" mask="url(#bX)" d="M0 0h18.63v14.983H0z"/></g><g transform="translate(1.742 1254.742)"><mask id="bZ" fill="#fff"><use xlink:href="#bY"/></mask><path fill="#606060" fill-rule="nonzero" mask="url(#bZ)" d="M0 0h17.516v16.928H0z"/></g><g transform="translate(1.478 1286.828)"><mask id="cb" fill="#fff"><use xlink:href="#ca"/></mask><path fill="#606060" fill-rule="nonzero" mask="url(#cb)" d="M0 0h17.044v14.344H0z"/></g><g transform="translate(9.588 1288.654)"><mask id="cd" fill="#fff"><use xlink:href="#cc"/></mask><path fill="#606060" fill-rule="nonzero" mask="url(#cd)" d="M0 0h.844v10.246H0z"/></g><path d="M2 1303h16zM1.375 1338.375h17.194z" fill="#606060" fill-rule="nonzero"/><g transform="translate(1.089 1320.656)"><mask id="cf" fill="#fff"><use xlink:href="#ce"/></mask><path fill="#606060" fill-rule="nonzero" mask="url(#cf)" d="M0 0h17.817v14.81H0z"/></g><g transform="translate(6.66 1325.002)"><mask id="ch" fill="#fff"><use xlink:href="#cg"/></mask><path fill="#606060" fill-rule="nonzero" mask="url(#ch)" d="M0 0h6.679v3.202H0z"/></g><g><g transform="translate(1.547 1355.234)"><mask id="cj" fill="#fff"><use xlink:href="#ci"/></mask><path fill="#606060" fill-rule="nonzero" mask="url(#cj)" d="M0 0h18.933v17.531H0z"/></g><g transform="translate(12.534 1357.297)"><mask id="cl" fill="#fff"><use xlink:href="#ck"/></mask><path fill="#606060" fill-rule="nonzero" mask="url(#cl)" d="M0 0h5.156v11.344H0z"/></g></g><g transform="translate(3 1390)"><mask id="cn" fill="#fff"><use xlink:href="#cm"/></mask><path fill="#606060" fill-rule="nonzero" mask="url(#cn)" d="M0 0h20v18H0z"/></g><g stroke-linecap="round" stroke-linejoin="round" stroke-dasharray="0" stroke="#606060"><path d="M4 1444v-16h9v16M7 1431h6M7 1434h6M7 1437h6M7 1440h6M1.5 1444.5h14M17.518 1444.518v-9.5m0 0-1.536 1.5m1.536-1.5 1.464 1.5"/></g><g><path d="M5.5 1473.417v-16h9v16M8.5 1460.417h6M8.5 1463.417h6M8.5 1466.417h6M8.5 1469.417h6M1 1473.417h18" stroke-linecap="round" stroke-linejoin="round" stroke="#606060"/><g transform="translate(11.083 1456)"><mask id="cp" fill="#fff"><use xlink:href="#co"/></mask><path fill="#FFF" fill-rule="nonzero" mask="url(#cp)" d="M0 0h5.833v5.833H0z"/></g><path d="M14 1461.833a2.917 2.917 0 1 0 0-5.833 2.917 2.917 0 0 0 0 5.833z" stroke="#606060" stroke-width="1.167"/><g transform="translate(12.5 1457.417)"><mask id="cr" fill="#fff"><use xlink:href="#cq"/></mask><path fill="#606060" fill-rule="nonzero" mask="url(#cr)" d="M0 0h3.128v3H0z"/></g></g><g stroke-linecap="round" stroke="#606060"><path d="M17 1503H1v-2.365h2.95v-2.7h2.685v-2.649h2.831v-2.641h2.563v-2.758h2.747V1487H17z"/><path d="m2.879 1493.121 4.242-4.243-.283 3.112.283-3.112-3.111.283" stroke-linejoin="round"/></g><g><g transform="translate(1 1529.344)"><mask id="ct" fill="#fff"><use xlink:href="#cs"/></mask><path fill="#606060" fill-rule="nonzero" mask="url(#ct)" d="M0 0h17.944v2.75H0z"/></g><g transform="translate(1.09 1513)"><mask id="cv" fill="#fff"><use xlink:href="#cu"/></mask><path fill="#606060" fill-rule="nonzero" mask="url(#cv)" d="M0 0h17.817v14.81H0z"/></g><g transform="translate(6.658 1517.346)"><mask id="cx" fill="#fff"><use xlink:href="#cw"/></mask><path fill="#606060" fill-rule="nonzero" mask="url(#cx)" d="M0 0h6.679v3.202H0z"/></g></g><g transform="translate(0 1540)"><mask id="cz" fill="#fff"><use xlink:href="#cy"/></mask><g mask="url(#cz)"><path fill="#DFF6F9" fill-rule="nonzero" d="M0 0h60v60H0z"/><g transform="translate(-.46 51.07)"><mask id="cB" fill="#fff"><use xlink:href="#cA"/></mask><path fill="#7BDCE6" fill-rule="nonzero" mask="url(#cB)" d="M.46 0H60v8.93H.46z"/></g><g transform="translate(22.066 40.952)"><mask id="cD" fill="#fff"><use xlink:href="#cC"/></mask><path fill="#FFDEA5" fill-rule="nonzero" mask="url(#cD)" d="M0 0h15.53v15.53H0z"/></g><g transform="translate(22.77 40.952)"><mask id="cF" fill="#fff"><use xlink:href="#cE"/></mask><path fill="#FFEBC7" fill-rule="nonzero" style="mix-blend-mode:multiply" mask="url(#cF)" d="M0 0h14.122v10.118H0z"/></g><g transform="translate(17.655 15.836)"><mask id="cH" fill="#fff"><use xlink:href="#cG"/></mask><path fill="#FFDEA5" fill-rule="nonzero" mask="url(#cH)" d="M0 0h23.646v30.996H0z"/></g><g transform="translate(21.19 15.07)"><mask id="cJ" fill="#fff"><use xlink:href="#cI"/></mask><path fill="#2F302F" fill-rule="nonzero" mask="url(#cJ)" d="M0 0h16.593v8.288H0z"/></g><g transform="translate(17.089 16.993)"><mask id="cL" fill="#fff"><use xlink:href="#cK"/></mask><path fill="#2F302F" fill-rule="nonzero" mask="url(#cL)" d="M0 0h6.744v16.358H0z"/></g><g transform="translate(35.124 16.993)"><mask id="cN" fill="#fff"><use xlink:href="#cM"/></mask><path fill="#2F302F" fill-rule="nonzero" mask="url(#cN)" d="M0 0h6.745v16.358H0z"/></g><g transform="translate(19.938 12.327)"><mask id="cP" fill="#fff"><use xlink:href="#cO"/></mask><path fill="#2F302F" fill-rule="nonzero" mask="url(#cP)" d="M0 0h21.41v11.75H0z"/></g><g transform="translate(16.698 16.734)"><mask id="cR" fill="#fff"><use xlink:href="#cQ"/></mask><path fill="#2F302F" fill-rule="nonzero" mask="url(#cR)" d="M0 0h8.304v11.221H0z"/></g><g transform="translate(33.82 16.734)"><mask id="cT" fill="#fff"><use xlink:href="#cS"/></mask><path fill="#2F302F" fill-rule="nonzero" mask="url(#cT)" d="M0 0h8.298v11.221H0z"/></g><g transform="translate(39.407 27.635)"><mask id="cV" fill="#fff"><use xlink:href="#cU"/></mask><path fill="#00C1D3" fill-rule="nonzero" mask="url(#cV)" d="M0 0h6.326v11.949H0z"/></g><g transform="translate(39.407 27.635)"><mask id="cX" fill="#fff"><use xlink:href="#cW"/></mask><path fill="#7BDCE6" fill-rule="nonzero" mask="url(#cX)" d="M0 0h3.13v11.95H0z"/></g><g transform="translate(13.351 27.635)"><mask id="cZ" fill="#fff"><use xlink:href="#cY"/></mask><path fill="#00C1D3" fill-rule="nonzero" mask="url(#cZ)" d="M0 0h6.323v11.949H0z"/></g><g transform="translate(16.545 27.635)"><mask id="db" fill="#fff"><use xlink:href="#da"/></mask><path fill="#7BDCE6" fill-rule="nonzero" mask="url(#db)" d="M0 0h3.13v11.95H0z"/></g><g transform="translate(14.7 8.063)"><mask id="dd" fill="#fff"><use xlink:href="#dc"/></mask><path fill="#00C1D3" fill-rule="nonzero" mask="url(#dd)" d="M0 0h29.57v21.628H0z"/></g><g transform="translate(17.293 7)"><mask id="df" fill="#fff"><use xlink:href="#de"/></mask><path fill="#00C1D3" fill-rule="nonzero" mask="url(#df)" d="M0 0h24.24v6.584H0z"/></g><g transform="translate(30.776 36.823)"><mask id="dh" fill="#fff"><use xlink:href="#dg"/></mask><path fill="#7BDCE6" fill-rule="nonzero" mask="url(#dh)" d="M0 0h12.949v8.007H0z"/></g><g transform="translate(27.946 42.953)"><mask id="dj" fill="#fff"><use xlink:href="#di"/></mask><path fill="#7BDCE6" fill-rule="nonzero" mask="url(#dj)" d="M0 0h4.598v2.815H0z"/></g></g></g></g><g><mask id="dl" fill="#fff"><use xlink:href="#dk"/></mask><g fill="#303030" fill-rule="nonzero" mask="url(#dl)"><path d="M10 1613.617v-3.325l-1.32 1.32-.148-.148A4.964 4.964 0 0 0 4.998 1610 5.005 5.005 0 0 0 0 1615c0 2.757 2.242 5 4.998 5a5.005 5.005 0 0 0 4.998-5h-.968a4.036 4.036 0 0 1-4.03 4.032A4.036 4.036 0 0 1 .968 1615a4.036 4.036 0 0 1 4.03-4.032c1.077 0 2.089.42 2.85 1.18l.148.149-1.32 1.32h3.323z"/><path d="M5.508 1614.492v-1.765h-.963v2.728h2.728v-.963z"/></g></g><g transform="translate(0 1632)"><mask id="dn" fill="#fff"><use xlink:href="#dm"/></mask><g fill-rule="nonzero" mask="url(#dn)"><path d="M.517 1.793a.423.423 0 0 0-.424.424v12.7c0 .233.19.423.424.423h12.7c.233 0 .423-.19.423-.423v-12.7a.423.423 0 0 0-.423-.424H.517zm.423.847h3.81v3.387a.423.423 0 0 0 .677.339l1.44-1.08 1.44 1.08a.423.423 0 0 0 .676-.34V2.64h3.81v11.853H.94V2.64zm13.97 4.657a.424.424 0 1 0 0 .846h3.135l2.42 4.436c.033.06.08.112.137.15l2.351 1.567v4.43h-.88a2.97 2.97 0 0 0-2.93-2.54 2.97 2.97 0 0 0-2.963 2.964 2.97 2.97 0 0 0 2.963 2.963 2.97 2.97 0 0 0 2.93-2.54h1.304c.233 0 .423-.19.423-.423v-5.08a.423.423 0 0 0-.188-.352l-2.454-1.636-2.49-4.565a.424.424 0 0 0-.371-.22H14.91zm0 1.693a.423.423 0 0 0-.423.423v2.964c0 .233.19.423.423.423h3.81a.423.423 0 1 0 0-.847h-3.387V9.837h1.694a.423.423 0 1 0 0-.847H14.91zm-6.773 2.117a.423.423 0 1 0 0 .846h3.386a.423.423 0 1 0 0-.846H8.137zm0 1.693a.423.423 0 1 0 0 .847H9.83a.423.423 0 1 0 0-.847H8.137zM.51 16.18a.424.424 0 0 0-.417.43v2.54c0 .234.19.423.424.423H1.82a2.97 2.97 0 0 0 2.929 2.54 2.97 2.97 0 0 0 2.963-2.963 2.97 2.97 0 0 0-2.963-2.963 2.97 2.97 0 0 0-2.93 2.54H.94V16.61a.423.423 0 0 0-.43-.43zm4.24.853a2.11 2.11 0 0 1 2.117 2.117 2.11 2.11 0 0 1-2.117 2.117A2.109 2.109 0 0 1 2.636 19.2a.423.423 0 0 0 0-.103 2.109 2.109 0 0 1 2.114-2.064zm14.393 0c1.158 0 2.088.917 2.115 2.067a.423.423 0 0 0 0 .103 2.109 2.109 0 0 1-2.115 2.064 2.11 2.11 0 0 1-2.116-2.117 2.11 2.11 0 0 1 2.116-2.117zm-10.16 1.694a.423.423 0 1 0 0 .846h5.927a.423.423 0 1 0 0-.846H8.983z" fill="#303030"/><path d="M5.597 2.64h2.54v2.54L7.12 4.418a.423.423 0 0 0-.508 0l-1.016.762V2.64zM4.75 18.303a.853.853 0 0 0-.847.847c0 .463.384.847.847.847a.853.853 0 0 0 .847-.847.853.853 0 0 0-.847-.847zM19.143 18.303a.853.853 0 0 0-.846.847c0 .463.384.847.846.847a.853.853 0 0 0 .847-.847.853.853 0 0 0-.847-.847z" fill="#D8232A"/></g></g></g></svg>